<html>
<style>
    canvas {
        border: 1px solid black;
    }
</style>

<body>
    <canvas id="canvas" width="800" height="400"></canvas>
    <script>
        const canvas = document.getElementById("canvas");
        const ctx = canvas.getContext("2d");
        let animationId;
        // 音符列表
        const NOTES_LIST = [
            "A0",
            "A#0",
            "B0",
            "C1",
            "C#1",
            "D1",
            "D#1",
            "E1",
            "F1",
            "F#1",
            "G1",
            "G#1",
            "A1",
            "A#1",
            "B1",
            "C2",
            "C#2",
            "D2",
            "D#2",
            "E2",
            "F2",
            "F#2",
            "G2",
            "G#2",
            "A2",
            "A#2",
            "B2",
            "C3",
            "C#3",
            "D3",
            "D#3",
            "E3",
            "F3",
            "F#3",
            "G3",
            "G#3",
            "A3",
            "A#3",
            "B3",
            "C4",
            "C#4",
            "D4",
            "D#4",
            "E4",
            "F4",
            "F#4",
            "G4",
            "G#4",
            "A4",
            "A#4",
            "B4",
            "C5",
            "C#5",
            "D5",
            "D#5",
            "E5",
            "F5",
            "F#5",
            "G5",
            "G#5",
            "A5",
            "A#5",
            "B5",
            "C6",
            "C#6",
            "D6",
            "D#6",
            "E6",
            "F6",
            "F#6",
            "G6",
            "G#6",
            "A6",
            "A#6",
            "B6",
            "C7",
            "C#7",
            "D7",
            "D#7",
            "E7",
            "F7",
            "F#7",
            "G7",
            "G#7",
            "A7",
            "A#7",
            "B7",
            "C8",
        ]
        const notes = [
            {
                "duration": 0.5283378458333323,
                "durationTicks": 240,
                "midi": 84,
                "name": "C6",
                "ticks": 1440,
                "time": 3.8297849999999998,
                "velocity": 0.8740157480314961
            },
            {
                "duration": 0.5283378458333323,
                "durationTicks": 240,
                "midi": 82,
                "name": "A#5",
                "ticks": 1440,
                "time": 3.8297849999999998,
                "velocity": 0.8740157480314961
            },
            {
                "duration": 0.5283378458333323,
                "durationTicks": 240,
                "midi": 79,
                "name": "G5",
                "ticks": 1440,
                "time": 3.8297849999999998,
                "velocity": 0.8740157480314961
            },
            {
                "duration": 0.5283378458333323,
                "durationTicks": 240,
                "midi": 72,
                "name": "C5",
                "ticks": 1440,
                "time": 3.8297849999999998,
                "velocity": 0.8740157480314961
            },
            {
                "duration": 0.6382975000000002,
                "durationTicks": 240,
                "midi": 89,
                "name": "F6",
                "ticks": 1680,
                "time": 4.358122845833332,
                "velocity": 0.8740157480314961
            },
            {
                "duration": 0.6382975000000002,
                "durationTicks": 240,
                "midi": 84,
                "name": "C6",
                "ticks": 1680,
                "time": 4.358122845833332,
                "velocity": 0.8740157480314961
            },
            {
                "duration": 0.6382975000000002,
                "durationTicks": 240,
                "midi": 77,
                "name": "F5",
                "ticks": 1680,
                "time": 4.358122845833332,
                "velocity": 0.8740157480314961
            },
            {
                "duration": 4.037156554166666,
                "durationTicks": 1440,
                "midi": 89,
                "name": "F6",
                "ticks": 1920,
                "time": 4.996420345833332,
                "velocity": 0.8740157480314961
            },
            {
                "duration": 4.037156554166666,
                "durationTicks": 1440,
                "midi": 84,
                "name": "C6",
                "ticks": 1920,
                "time": 4.996420345833332,
                "velocity": 0.8740157480314961
            },
            {
                "duration": 4.037156554166666,
                "durationTicks": 1440,
                "midi": 81,
                "name": "A5",
                "ticks": 1920,
                "time": 4.996420345833332,
                "velocity": 0.8740157480314961
            },
            {
                "duration": 4.037156554166666,
                "durationTicks": 1440,
                "midi": 77,
                "name": "F5",
                "ticks": 1920,
                "time": 4.996420345833332,
                "velocity": 0.8740157480314961
            },
            {
                "duration": 0.6017045416666669,
                "durationTicks": 240,
                "midi": 69,
                "name": "A4",
                "ticks": 3360,
                "time": 9.033576899999998,
                "velocity": 0.7559055118110236
            },
            {
                "duration": 0.6017045416666669,
                "durationTicks": 240,
                "midi": 72,
                "name": "C5",
                "ticks": 3360,
                "time": 9.033576899999998,
                "velocity": 0.7559055118110236
            },
            {
                "duration": 0.8149562666666679,
                "durationTicks": 240,
                "midi": 65,
                "name": "F4",
                "ticks": 3600,
                "time": 9.635281441666665,
                "velocity": 0.7559055118110236
            },
            {
                "duration": 0.15056814166666754,
                "durationTicks": 53,
                "midi": 69,
                "name": "A4",
                "ticks": 3600,
                "time": 9.635281441666665,
                "velocity": 0.7559055118110236
            },
            {
                "duration": 0.46714789375000265,
                "durationTicks": 133,
                "midi": 69,
                "name": "A4",
                "ticks": 3680,
                "time": 9.862554108333331,
                "velocity": 0.7559055118110236
            },
            {
                "duration": 0.1734449354166685,
                "durationTicks": 53,
                "midi": 72,
                "name": "C5",
                "ticks": 3680,
                "time": 9.862554108333331,
                "velocity": 0.7559055118110236
            },
            {
                "duration": 0.7274634458333349,
                "durationTicks": 240,
                "midi": 65,
                "name": "F4",
                "ticks": 3760,
                "time": 10.124814812499999,
                "velocity": 0.7480314960629921
            },
            {
                "duration": 0.523381945833334,
                "durationTicks": 160,
                "midi": 69,
                "name": "A4",
                "ticks": 3760,
                "time": 10.124814812499999,
                "velocity": 0.7480314960629921
            },
            {
                "duration": 0.6061220499999997,
                "durationTicks": 240,
                "midi": 65,
                "name": "F4",
                "ticks": 3840,
                "time": 10.450237708333333,
                "velocity": 0.7401574803149606
            },
            {
                "duration": 0.6061220499999997,
                "durationTicks": 240,
                "midi": 62,
                "name": "D4",
                "ticks": 3840,
                "time": 10.450237708333333,
                "velocity": 0.7401574803149606
            },
            {
                "duration": 2.3636758166666656,
                "durationTicks": 1080,
                "midi": 60,
                "name": "C4",
                "ticks": 4080,
                "time": 11.056359758333333,
                "velocity": 0.7086614173228346
            },
            {
                "duration": 2.470818566666665,
                "durationTicks": 1140,
                "midi": 57,
                "name": "A3",
                "ticks": 4080,
                "time": 11.056359758333333,
                "velocity": 0.7086614173228346
            },
            {
                "duration": 0.2678571250000008,
                "durationTicks": 60,
                "midi": 98,
                "name": "D7",
                "ticks": 4320,
                "time": 11.668604258333332,
                "velocity": 0.6377952755905512
            },
            {
                "duration": 0.18493642083333306,
                "durationTicks": 60,
                "midi": 96,
                "name": "C7",
                "ticks": 4380,
                "time": 11.936461383333333,
                "velocity": 0.6377952755905512
            },
            {
                "duration": 0.12006752083333261,
                "durationTicks": 60,
                "midi": 93,
                "name": "A6",
                "ticks": 4440,
                "time": 12.121397804166666,
                "velocity": 0.6377952755905512
            },
            {
                "duration": 0.10714274999999951,
                "durationTicks": 60,
                "midi": 89,
                "name": "F6",
                "ticks": 4500,
                "time": 12.241465324999998,
                "velocity": 0.6299212598425197
            },
            {
                "duration": 0.10714274999999951,
                "durationTicks": 60,
                "midi": 86,
                "name": "D6",
                "ticks": 4560,
                "time": 12.348608074999998,
                "velocity": 0.6299212598425197
            },
            {
                "duration": 0.10714275000000129,
                "durationTicks": 60,
                "midi": 84,
                "name": "C6",
                "ticks": 4620,
                "time": 12.455750824999997,
                "velocity": 0.6299212598425197
            },
            {
                "duration": 0.10714274999999951,
                "durationTicks": 60,
                "midi": 81,
                "name": "A5",
                "ticks": 4680,
                "time": 12.562893574999999,
                "velocity": 0.6299212598425197
            },
            {
                "duration": 0.10714274999999951,
                "durationTicks": 60,
                "midi": 77,
                "name": "F5",
                "ticks": 4740,
                "time": 12.670036324999998,
                "velocity": 0.6299212598425197
            },
            {
                "duration": 0.10714274999999951,
                "durationTicks": 60,
                "midi": 74,
                "name": "D5",
                "ticks": 4800,
                "time": 12.777179074999998,
                "velocity": 0.6299212598425197
            },
            {
                "duration": 0.10714275000000129,
                "durationTicks": 60,
                "midi": 72,
                "name": "C5",
                "ticks": 4860,
                "time": 12.884321824999997,
                "velocity": 0.6299212598425197
            },
            {
                "duration": 0.10714274999999951,
                "durationTicks": 60,
                "midi": 69,
                "name": "A4",
                "ticks": 4920,
                "time": 12.991464574999998,
                "velocity": 0.6299212598425197
            },
            {
                "duration": 0.10714274999999951,
                "durationTicks": 60,
                "midi": 65,
                "name": "F4",
                "ticks": 4980,
                "time": 13.098607324999998,
                "velocity": 0.6299212598425197
            },
            {
                "duration": 0.10714275000000129,
                "durationTicks": 60,
                "midi": 62,
                "name": "D4",
                "ticks": 5040,
                "time": 13.205750074999997,
                "velocity": 0.6299212598425197
            },
            {
                "duration": 0.3214282500000003,
                "durationTicks": 180,
                "midi": 60,
                "name": "C4",
                "ticks": 5100,
                "time": 13.312892824999999,
                "velocity": 0.6299212598425197
            },
            {
                "duration": 0.2142855000000008,
                "durationTicks": 120,
                "midi": 57,
                "name": "A3",
                "ticks": 5160,
                "time": 13.420035574999998,
                "velocity": 0.6299212598425197
            },
            {
                "duration": 0.10714275000000129,
                "durationTicks": 60,
                "midi": 53,
                "name": "F3",
                "ticks": 5220,
                "time": 13.527178324999998,
                "velocity": 0.6299212598425197
            },
            {
                "duration": 0.8571419999999996,
                "durationTicks": 480,
                "midi": 84,
                "name": "C6",
                "ticks": 5280,
                "time": 13.634321074999999,
                "velocity": 0.7952755905511811
            },
            {
                "duration": 0.8571419999999996,
                "durationTicks": 480,
                "midi": 77,
                "name": "F5",
                "ticks": 5280,
                "time": 13.634321074999999,
                "velocity": 0.7952755905511811
            },
            {
                "duration": 0.8571419999999996,
                "durationTicks": 480,
                "midi": 72,
                "name": "C5",
                "ticks": 5280,
                "time": 13.634321074999999,
                "velocity": 0.7952755905511811
            },
            {
                "duration": 0.8571419999999996,
                "durationTicks": 480,
                "midi": 48,
                "name": "C3",
                "ticks": 5280,
                "time": 13.634321074999999,
                "velocity": 0.7952755905511811
            },
            {
                "duration": 2.1352498625000003,
                "durationTicks": 1200,
                "midi": 86,
                "name": "D6",
                "ticks": 5760,
                "time": 14.491463074999999,
                "velocity": 0.8267716535433071
            },
            {
                "duration": 2.1352498625000003,
                "durationTicks": 1200,
                "midi": 82,
                "name": "A#5",
                "ticks": 5760,
                "time": 14.491463074999999,
                "velocity": 0.8267716535433071
            },
            {
                "duration": 2.1352498625000003,
                "durationTicks": 1200,
                "midi": 77,
                "name": "F5",
                "ticks": 5760,
                "time": 14.491463074999999,
                "velocity": 0.8267716535433071
            },
            {
                "duration": 2.1352498625000003,
                "durationTicks": 1200,
                "midi": 74,
                "name": "D5",
                "ticks": 5760,
                "time": 14.491463074999999,
                "velocity": 0.8267716535433071
            },
            {
                "duration": 0.4271933125000018,
                "durationTicks": 240,
                "midi": 72,
                "name": "C5",
                "ticks": 6960,
                "time": 16.6267129375,
                "velocity": 0.7559055118110236
            },
            {
                "duration": 0.4271933125000018,
                "durationTicks": 240,
                "midi": 69,
                "name": "A4",
                "ticks": 6960,
                "time": 16.6267129375,
                "velocity": 0.7559055118110236
            },
            {
                "duration": 0.40540499999999824,
                "durationTicks": 240,
                "midi": 65,
                "name": "F4",
                "ticks": 7200,
                "time": 17.05390625,
                "velocity": 0.7559055118110236
            },
            {
                "duration": 0.27027,
                "durationTicks": 160,
                "midi": 69,
                "name": "A4",
                "ticks": 7200,
                "time": 17.05390625,
                "velocity": 0.7559055118110236
            },
            {
                "duration": 0.40540499999999824,
                "durationTicks": 240,
                "midi": 64,
                "name": "E4",
                "ticks": 7360,
                "time": 17.32417625,
                "velocity": 0.7559055118110236
            },
            {
                "duration": 0.27027,
                "durationTicks": 160,
                "midi": 67,
                "name": "G4",
                "ticks": 7360,
                "time": 17.32417625,
                "velocity": 0.7559055118110236
            },
            {
                "duration": 0.46878851666666677,
                "durationTicks": 240,
                "midi": 62,
                "name": "D4",
                "ticks": 7520,
                "time": 17.59444625,
                "velocity": 0.7559055118110236
            },
            {
                "duration": 0.27027,
                "durationTicks": 160,
                "midi": 65,
                "name": "F4",
                "ticks": 7520,
                "time": 17.59444625,
                "velocity": 0.7559055118110236
            },
            {
                "duration": 1.7488543166666695,
                "durationTicks": 990,
                "midi": 69,
                "name": "A4",
                "ticks": 7680,
                "time": 17.86471625,
                "velocity": 0.7559055118110236
            },
            {
                "duration": 2.201123129166664,
                "durationTicks": 1230,
                "midi": 65,
                "name": "F4",
                "ticks": 7680,
                "time": 17.86471625,
                "velocity": 0.7559055118110236
            },
            {
                "duration": 0.04746831249999772,
                "durationTicks": 30,
                "midi": 72,
                "name": "C5",
                "ticks": 7920,
                "time": 18.41918406666667,
                "velocity": 0.6062992125984252
            },
            {
                "duration": 0.04746831249999772,
                "durationTicks": 30,
                "midi": 77,
                "name": "F5",
                "ticks": 7920,
                "time": 18.41918406666667,
                "velocity": 0.6062992125984252
            },
            {
                "duration": 0.04746831249999772,
                "durationTicks": 30,
                "midi": 81,
                "name": "A5",
                "ticks": 7920,
                "time": 18.41918406666667,
                "velocity": 0.6062992125984252
            },
            {
                "duration": 0.33227818749999827,
                "durationTicks": 210,
                "midi": 84,
                "name": "C6",
                "ticks": 7920,
                "time": 18.41918406666667,
                "velocity": 0.6062992125984252
            },
            {
                "duration": 0.04746831249999772,
                "durationTicks": 30,
                "midi": 74,
                "name": "D5",
                "ticks": 8160,
                "time": 18.79893056666667,
                "velocity": 0.6062992125984252
            },
            {
                "duration": 0.04746831249999772,
                "durationTicks": 30,
                "midi": 77,
                "name": "F5",
                "ticks": 8160,
                "time": 18.79893056666667,
                "velocity": 0.6062992125984252
            },
            {
                "duration": 0.04746831249999772,
                "durationTicks": 30,
                "midi": 81,
                "name": "A5",
                "ticks": 8160,
                "time": 18.79893056666667,
                "velocity": 0.6062992125984252
            },
            {
                "duration": 0.33227818749999827,
                "durationTicks": 210,
                "midi": 86,
                "name": "D6",
                "ticks": 8160,
                "time": 18.79893056666667,
                "velocity": 0.6062992125984252
            },
            {
                "duration": 0.047468312500001275,
                "durationTicks": 30,
                "midi": 72,
                "name": "C5",
                "ticks": 8400,
                "time": 19.17867706666667,
                "velocity": 0.6062992125984252
            },
            {
                "duration": 0.047468312500001275,
                "durationTicks": 30,
                "midi": 77,
                "name": "F5",
                "ticks": 8400,
                "time": 19.17867706666667,
                "velocity": 0.6062992125984252
            },
            {
                "duration": 0.047468312500001275,
                "durationTicks": 30,
                "midi": 81,
                "name": "A5",
                "ticks": 8400,
                "time": 19.17867706666667,
                "velocity": 0.6062992125984252
            },
            {
                "duration": 0.33227818749999827,
                "durationTicks": 210,
                "midi": 84,
                "name": "C6",
                "ticks": 8400,
                "time": 19.17867706666667,
                "velocity": 0.6062992125984252
            },
            {
                "duration": 0.5074158124999961,
                "durationTicks": 270,
                "midi": 69,
                "name": "A4",
                "ticks": 8640,
                "time": 19.55842356666667,
                "velocity": 0.6062992125984252
            },
            {
                "duration": 0.05514700000000161,
                "durationTicks": 30,
                "midi": 72,
                "name": "C5",
                "ticks": 8640,
                "time": 19.55842356666667,
                "velocity": 0.6062992125984252
            },
            {
                "duration": 0.05514700000000161,
                "durationTicks": 30,
                "midi": 77,
                "name": "F5",
                "ticks": 8640,
                "time": 19.55842356666667,
                "velocity": 0.6062992125984252
            },
            {
                "duration": 0.3860290000000006,
                "durationTicks": 210,
                "midi": 81,
                "name": "A5",
                "ticks": 8640,
                "time": 19.55842356666667,
                "velocity": 0.6062992125984252
            },
            {
                "duration": 0.5352408145833358,
                "durationTicks": 240,
                "midi": 65,
                "name": "F4",
                "ticks": 8880,
                "time": 20.001184254166667,
                "velocity": 0.6062992125984252
            },
            {
                "duration": 0.5352408145833358,
                "durationTicks": 240,
                "midi": 69,
                "name": "A4",
                "ticks": 8880,
                "time": 20.001184254166667,
                "velocity": 0.6062992125984252
            },
            {
                "duration": 0.06465512499999804,
                "durationTicks": 30,
                "midi": 72,
                "name": "C5",
                "ticks": 8880,
                "time": 20.001184254166667,
                "velocity": 0.6062992125984252
            },
            {
                "duration": 0.4657963770833362,
                "durationTicks": 210,
                "midi": 77,
                "name": "F5",
                "ticks": 8880,
                "time": 20.001184254166667,
                "velocity": 0.6062992125984252
            },
            {
                "duration": 0.5555555000000005,
                "durationTicks": 240,
                "midi": 84,
                "name": "C6",
                "ticks": 9120,
                "time": 20.536425068750003,
                "velocity": 0.8267716535433071
            },
            {
                "duration": 0.5555555000000005,
                "durationTicks": 240,
                "midi": 81,
                "name": "A5",
                "ticks": 9120,
                "time": 20.536425068750003,
                "velocity": 0.8267716535433071
            },
            {
                "duration": 0.5555555000000005,
                "durationTicks": 240,
                "midi": 77,
                "name": "F5",
                "ticks": 9120,
                "time": 20.536425068750003,
                "velocity": 0.8267716535433071
            },
            {
                "duration": 0.5555555000000005,
                "durationTicks": 240,
                "midi": 72,
                "name": "C5",
                "ticks": 9120,
                "time": 20.536425068750003,
                "velocity": 0.8267716535433071
            },
            {
                "duration": 0.555555499999997,
                "durationTicks": 240,
                "midi": 89,
                "name": "F6",
                "ticks": 9360,
                "time": 21.091980568750003,
                "velocity": 0.8267716535433071
            },
            {
                "duration": 0.555555499999997,
                "durationTicks": 240,
                "midi": 84,
                "name": "C6",
                "ticks": 9360,
                "time": 21.091980568750003,
                "velocity": 0.8267716535433071
            },
            {
                "duration": 0.555555499999997,
                "durationTicks": 240,
                "midi": 81,
                "name": "A5",
                "ticks": 9360,
                "time": 21.091980568750003,
                "velocity": 0.8267716535433071
            },
            {
                "duration": 0.555555499999997,
                "durationTicks": 240,
                "midi": 77,
                "name": "F5",
                "ticks": 9360,
                "time": 21.091980568750003,
                "velocity": 0.8267716535433071
            },
            {
                "duration": 5,
                "durationTicks": 1200,
                "midi": 91,
                "name": "G6",
                "ticks": 9600,
                "time": 21.64753606875,
                "velocity": 0.8661417322834646
            },
            {
                "duration": 5,
                "durationTicks": 1200,
                "midi": 86,
                "name": "D6",
                "ticks": 9600,
                "time": 21.64753606875,
                "velocity": 0.8661417322834646
            },
            {
                "duration": 5,
                "durationTicks": 1200,
                "midi": 79,
                "name": "G5",
                "ticks": 9600,
                "time": 21.64753606875,
                "velocity": 0.8661417322834646
            },
            {
                "duration": 1,
                "durationTicks": 240,
                "midi": 89,
                "name": "F6",
                "ticks": 10800,
                "time": 26.64753606875,
                "velocity": 0.7559055118110236
            },
            {
                "duration": 1,
                "durationTicks": 240,
                "midi": 77,
                "name": "F5",
                "ticks": 10800,
                "time": 26.64753606875,
                "velocity": 0.7559055118110236
            },
            {
                "duration": 1,
                "durationTicks": 240,
                "midi": 69,
                "name": "A4",
                "ticks": 11040,
                "time": 27.64753606875,
                "velocity": 0.7559055118110236
            },
            {
                "duration": 1,
                "durationTicks": 240,
                "midi": 72,
                "name": "C5",
                "ticks": 11040,
                "time": 27.64753606875,
                "velocity": 0.7559055118110236
            },
            {
                "duration": 0.30476188333333454,
                "durationTicks": 80,
                "midi": 65,
                "name": "F4",
                "ticks": 11280,
                "time": 28.64753606875,
                "velocity": 0.7007874015748031
            },
            {
                "duration": 0.30476188333333454,
                "durationTicks": 80,
                "midi": 69,
                "name": "A4",
                "ticks": 11280,
                "time": 28.64753606875,
                "velocity": 0.7007874015748031
            },
            {
                "duration": 0.23809516666666752,
                "durationTicks": 80,
                "midi": 69,
                "name": "A4",
                "ticks": 11360,
                "time": 28.952297952083335,
                "velocity": 0.7007874015748031
            },
            {
                "duration": 0.23809516666666752,
                "durationTicks": 80,
                "midi": 72,
                "name": "C5",
                "ticks": 11360,
                "time": 28.952297952083335,
                "velocity": 0.7007874015748031
            },
            {
                "duration": 0.3119047458333313,
                "durationTicks": 80,
                "midi": 65,
                "name": "F4",
                "ticks": 11440,
                "time": 29.190393118750002,
                "velocity": 0.7007874015748031
            },
            {
                "duration": 0.3119047458333313,
                "durationTicks": 80,
                "midi": 69,
                "name": "A4",
                "ticks": 11440,
                "time": 29.190393118750002,
                "velocity": 0.7007874015748031
            },
            {
                "duration": 0.7416666666666671,
                "durationTicks": 240,
                "midi": 60,
                "name": "C4",
                "ticks": 11520,
                "time": 29.502297864583333,
                "velocity": 0.7007874015748031
            },
            {
                "duration": 0.7416666666666671,
                "durationTicks": 240,
                "midi": 65,
                "name": "F4",
                "ticks": 11520,
                "time": 29.502297864583333,
                "velocity": 0.7007874015748031
            },
            {
                "duration": 2.9272222104166588,
                "durationTicks": 1680,
                "midi": 65,
                "name": "F4",
                "ticks": 11760,
                "time": 30.24396453125,
                "velocity": 0.6929133858267716
            },
            {
                "duration": 2.9272222104166588,
                "durationTicks": 1680,
                "midi": 69,
                "name": "A4",
                "ticks": 11760,
                "time": 30.24396453125,
                "velocity": 0.6929133858267716
            },
            {
                "duration": 0.32786866666666725,
                "durationTicks": 160,
                "midi": 60,
                "name": "C4",
                "ticks": 13440,
                "time": 33.17118674166666,
                "velocity": 0.6850393700787402
            },
            {
                "duration": 0.32786866666666725,
                "durationTicks": 160,
                "midi": 64,
                "name": "E4",
                "ticks": 13600,
                "time": 33.49905540833333,
                "velocity": 0.6850393700787402
            },
            {
                "duration": 0.32786866666666725,
                "durationTicks": 160,
                "midi": 67,
                "name": "G4",
                "ticks": 13760,
                "time": 33.826924074999994,
                "velocity": 0.6771653543307087
            },
            {
                "duration": 1.7827858749999947,
                "durationTicks": 870,
                "midi": 82,
                "name": "A#5",
                "ticks": 13920,
                "time": 34.15479274166666,
                "velocity": 0.6692913385826772
            },
            {
                "duration": 0.061475375000000554,
                "durationTicks": 30,
                "midi": 79,
                "name": "G5",
                "ticks": 13920,
                "time": 34.15479274166666,
                "velocity": 0.6692913385826772
            },
            {
                "duration": 0.061475375000000554,
                "durationTicks": 30,
                "midi": 76,
                "name": "E5",
                "ticks": 13920,
                "time": 34.15479274166666,
                "velocity": 0.6692913385826772
            },
            {
                "duration": 0.061475375000000554,
                "durationTicks": 30,
                "midi": 70,
                "name": "A#4",
                "ticks": 13920,
                "time": 34.15479274166666,
                "velocity": 0.6692913385826772
            },
            {
                "duration": 0.9836060000000018,
                "durationTicks": 480,
                "midi": 60,
                "name": "C4",
                "ticks": 14880,
                "time": 36.12200474166666,
                "velocity": 0.6299212598425197
            },
            {
                "duration": 0.9836060000000018,
                "durationTicks": 480,
                "midi": 64,
                "name": "E4",
                "ticks": 14880,
                "time": 36.12200474166666,
                "velocity": 0.6299212598425197
            },
            {
                "duration": 0.9836060000000018,
                "durationTicks": 480,
                "midi": 69,
                "name": "A4",
                "ticks": 14880,
                "time": 36.12200474166666,
                "velocity": 0.6299212598425197
            },
            {
                "duration": 2.4189776687499958,
                "durationTicks": 1440,
                "midi": 57,
                "name": "A3",
                "ticks": 15360,
                "time": 37.10561074166666,
                "velocity": 0.5984251968503937
            },
            {
                "duration": 2.4189776687499958,
                "durationTicks": 1440,
                "midi": 60,
                "name": "C4",
                "ticks": 15360,
                "time": 37.10561074166666,
                "velocity": 0.5984251968503937
            },
            {
                "duration": 2.4189776687499958,
                "durationTicks": 1440,
                "midi": 65,
                "name": "F4",
                "ticks": 15360,
                "time": 37.10561074166666,
                "velocity": 0.5984251968503937
            },
            {
                "duration": 0.21773580625000477,
                "durationTicks": 120,
                "midi": 89,
                "name": "F6",
                "ticks": 15600,
                "time": 37.61936184999999,
                "velocity": 0.5354330708661418
            },
            {
                "duration": 0.16598040000000225,
                "durationTicks": 120,
                "midi": 86,
                "name": "D6",
                "ticks": 15720,
                "time": 37.837097656249995,
                "velocity": 0.5354330708661418
            },
            {
                "duration": 0.1612902500000004,
                "durationTicks": 120,
                "midi": 84,
                "name": "C6",
                "ticks": 15840,
                "time": 38.00307805625,
                "velocity": 0.5275590551181102
            },
            {
                "duration": 0.162502741666664,
                "durationTicks": 120,
                "midi": 81,
                "name": "A5",
                "ticks": 15960,
                "time": 38.16436830625,
                "velocity": 0.5275590551181102
            },
            {
                "duration": 0.17543051666666543,
                "durationTicks": 120,
                "midi": 79,
                "name": "G5",
                "ticks": 16080,
                "time": 38.32687104791666,
                "velocity": 0.5196850393700787
            },
            {
                "duration": 0.18985572916665916,
                "durationTicks": 120,
                "midi": 81,
                "name": "A5",
                "ticks": 16200,
                "time": 38.50230156458333,
                "velocity": 0.5118110236220472
            },
            {
                "duration": 0.8324311166666689,
                "durationTicks": 480,
                "midi": 77,
                "name": "F5",
                "ticks": 16320,
                "time": 38.692157293749986,
                "velocity": 0.5118110236220472
            },
            {
                "duration": 0.25198307083334015,
                "durationTicks": 160,
                "midi": 84,
                "name": "C6",
                "ticks": 16800,
                "time": 39.524588410416655,
                "velocity": 0.84251968503937
            },
            {
                "duration": 0.25198307083334015,
                "durationTicks": 160,
                "midi": 72,
                "name": "C5",
                "ticks": 16800,
                "time": 39.524588410416655,
                "velocity": 0.84251968503937
            },
            {
                "duration": 0.2860192499999954,
                "durationTicks": 160,
                "midi": 86,
                "name": "D6",
                "ticks": 16960,
                "time": 39.776571481249995,
                "velocity": 0.84251968503937
            },
            {
                "duration": 0.2860192499999954,
                "durationTicks": 160,
                "midi": 74,
                "name": "D5",
                "ticks": 16960,
                "time": 39.776571481249995,
                "velocity": 0.84251968503937
            },
            {
                "duration": 0.32911902916666946,
                "durationTicks": 160,
                "midi": 88,
                "name": "E6",
                "ticks": 17120,
                "time": 40.06259073124999,
                "velocity": 0.84251968503937
            },
            {
                "duration": 0.32911902916666946,
                "durationTicks": 160,
                "midi": 76,
                "name": "E5",
                "ticks": 17120,
                "time": 40.06259073124999,
                "velocity": 0.84251968503937
            },
            {
                "duration": 2.004495956250004,
                "durationTicks": 1200,
                "midi": 89,
                "name": "F6",
                "ticks": 17280,
                "time": 40.39170976041666,
                "velocity": 0.84251968503937
            },
            {
                "duration": 2.004495956250004,
                "durationTicks": 1200,
                "midi": 84,
                "name": "C6",
                "ticks": 17280,
                "time": 40.39170976041666,
                "velocity": 0.84251968503937
            },
            {
                "duration": 2.004495956250004,
                "durationTicks": 1200,
                "midi": 81,
                "name": "A5",
                "ticks": 17280,
                "time": 40.39170976041666,
                "velocity": 0.84251968503937
            },
            {
                "duration": 2.004495956250004,
                "durationTicks": 1200,
                "midi": 77,
                "name": "F5",
                "ticks": 17280,
                "time": 40.39170976041666,
                "velocity": 0.84251968503937
            },
            {
                "duration": 0.4238835375000036,
                "durationTicks": 240,
                "midi": 88,
                "name": "E6",
                "ticks": 18480,
                "time": 42.396205716666664,
                "velocity": 0.7637795275590551
            },
            {
                "duration": 0.4238835375000036,
                "durationTicks": 240,
                "midi": 76,
                "name": "E5",
                "ticks": 18480,
                "time": 42.396205716666664,
                "velocity": 0.7637795275590551
            },
            {
                "duration": 0.375,
                "durationTicks": 240,
                "midi": 86,
                "name": "D6",
                "ticks": 18720,
                "time": 42.82008925416667,
                "velocity": 0.7637795275590551
            },
            {
                "duration": 0.375,
                "durationTicks": 240,
                "midi": 74,
                "name": "D5",
                "ticks": 18720,
                "time": 42.82008925416667,
                "velocity": 0.7637795275590551
            },
            {
                "duration": 0.375,
                "durationTicks": 240,
                "midi": 81,
                "name": "A5",
                "ticks": 18960,
                "time": 43.19508925416667,
                "velocity": 0.7637795275590551
            },
            {
                "duration": 0.375,
                "durationTicks": 240,
                "midi": 69,
                "name": "A4",
                "ticks": 18960,
                "time": 43.19508925416667,
                "velocity": 0.7637795275590551
            },
            {
                "duration": 2.8995864062499948,
                "durationTicks": 1440,
                "midi": 84,
                "name": "C6",
                "ticks": 19200,
                "time": 43.57008925416667,
                "velocity": 0.7637795275590551
            },
            {
                "duration": 2.8995864062499948,
                "durationTicks": 1440,
                "midi": 79,
                "name": "G5",
                "ticks": 19200,
                "time": 43.57008925416667,
                "velocity": 0.7637795275590551
            },
            {
                "duration": 2.8995864062499948,
                "durationTicks": 1440,
                "midi": 76,
                "name": "E5",
                "ticks": 19200,
                "time": 43.57008925416667,
                "velocity": 0.7637795275590551
            },
            {
                "duration": 2.8995864062499948,
                "durationTicks": 1440,
                "midi": 72,
                "name": "C5",
                "ticks": 19200,
                "time": 43.57008925416667,
                "velocity": 0.7637795275590551
            },
            {
                "duration": 0.2747664666666694,
                "durationTicks": 160,
                "midi": 86,
                "name": "D6",
                "ticks": 20640,
                "time": 46.46967566041666,
                "velocity": 0.7952755905511811
            },
            {
                "duration": 0.2747664666666694,
                "durationTicks": 160,
                "midi": 81,
                "name": "A5",
                "ticks": 20640,
                "time": 46.46967566041666,
                "velocity": 0.7952755905511811
            },
            {
                "duration": 0.2747664666666694,
                "durationTicks": 160,
                "midi": 78,
                "name": "F#5",
                "ticks": 20640,
                "time": 46.46967566041666,
                "velocity": 0.7952755905511811
            },
            {
                "duration": 0.2747664666666694,
                "durationTicks": 160,
                "midi": 74,
                "name": "D5",
                "ticks": 20640,
                "time": 46.46967566041666,
                "velocity": 0.7952755905511811
            },
            {
                "duration": 0.27397233333333304,
                "durationTicks": 160,
                "midi": 86,
                "name": "D6",
                "ticks": 20800,
                "time": 46.74444212708333,
                "velocity": 0.7952755905511811
            },
            {
                "duration": 0.27397233333333304,
                "durationTicks": 160,
                "midi": 81,
                "name": "A5",
                "ticks": 20800,
                "time": 46.74444212708333,
                "velocity": 0.7952755905511811
            },
            {
                "duration": 0.27397233333333304,
                "durationTicks": 160,
                "midi": 78,
                "name": "F#5",
                "ticks": 20800,
                "time": 46.74444212708333,
                "velocity": 0.7952755905511811
            },
            {
                "duration": 0.27397233333333304,
                "durationTicks": 160,
                "midi": 74,
                "name": "D5",
                "ticks": 20800,
                "time": 46.74444212708333,
                "velocity": 0.7952755905511811
            },
            {
                "duration": 0.27397233333333304,
                "durationTicks": 160,
                "midi": 88,
                "name": "E6",
                "ticks": 20960,
                "time": 47.018414460416665,
                "velocity": 0.7952755905511811
            },
            {
                "duration": 0.27397233333333304,
                "durationTicks": 160,
                "midi": 76,
                "name": "E5",
                "ticks": 20960,
                "time": 47.018414460416665,
                "velocity": 0.7952755905511811
            },
            {
                "duration": 2.656706750000005,
                "durationTicks": 1200,
                "midi": 86,
                "name": "D6",
                "ticks": 21120,
                "time": 47.29238679375,
                "velocity": 0.7952755905511811
            },
            {
                "duration": 2.656706750000005,
                "durationTicks": 1200,
                "midi": 82,
                "name": "A#5",
                "ticks": 21120,
                "time": 47.29238679375,
                "velocity": 0.7952755905511811
            },
            {
                "duration": 2.656706750000005,
                "durationTicks": 1200,
                "midi": 77,
                "name": "F5",
                "ticks": 21120,
                "time": 47.29238679375,
                "velocity": 0.7952755905511811
            },
            {
                "duration": 2.656706750000005,
                "durationTicks": 1200,
                "midi": 74,
                "name": "D5",
                "ticks": 21120,
                "time": 47.29238679375,
                "velocity": 0.7952755905511811
            },
            {
                "duration": 0.40806674999999615,
                "durationTicks": 240,
                "midi": 84,
                "name": "C6",
                "ticks": 22320,
                "time": 49.94909354375,
                "velocity": 0.7165354330708661
            },
            {
                "duration": 0.40806674999999615,
                "durationTicks": 240,
                "midi": 72,
                "name": "C5",
                "ticks": 22320,
                "time": 49.94909354375,
                "velocity": 0.7165354330708661
            },
            {
                "duration": 0.27026999999999646,
                "durationTicks": 160,
                "midi": 82,
                "name": "A#5",
                "ticks": 22560,
                "time": 50.35716029375,
                "velocity": 0.7086614173228346
            },
            {
                "duration": 0.27026999999999646,
                "durationTicks": 160,
                "midi": 70,
                "name": "A#4",
                "ticks": 22560,
                "time": 50.35716029375,
                "velocity": 0.7086614173228346
            },
            {
                "duration": 0.27027000000000356,
                "durationTicks": 160,
                "midi": 81,
                "name": "A5",
                "ticks": 22720,
                "time": 50.627430293749995,
                "velocity": 0.7086614173228346
            },
            {
                "duration": 0.27027000000000356,
                "durationTicks": 160,
                "midi": 69,
                "name": "A4",
                "ticks": 22720,
                "time": 50.627430293749995,
                "velocity": 0.7086614173228346
            },
            {
                "duration": 0.27027000000000356,
                "durationTicks": 160,
                "midi": 79,
                "name": "G5",
                "ticks": 22880,
                "time": 50.89770029375,
                "velocity": 0.7007874015748031
            },
            {
                "duration": 0.27027000000000356,
                "durationTicks": 160,
                "midi": 67,
                "name": "G4",
                "ticks": 22880,
                "time": 50.89770029375,
                "velocity": 0.7007874015748031
            },
            {
                "duration": 2.5843179583333438,
                "durationTicks": 1440,
                "midi": 81,
                "name": "A5",
                "ticks": 23040,
                "time": 51.16797029375,
                "velocity": 0.7007874015748031
            },
            {
                "duration": 2.5843179583333438,
                "durationTicks": 1440,
                "midi": 77,
                "name": "F5",
                "ticks": 23040,
                "time": 51.16797029375,
                "velocity": 0.7007874015748031
            },
            {
                "duration": 2.5843179583333438,
                "durationTicks": 1440,
                "midi": 72,
                "name": "C5",
                "ticks": 23040,
                "time": 51.16797029375,
                "velocity": 0.7007874015748031
            },
            {
                "duration": 2.5843179583333438,
                "durationTicks": 1440,
                "midi": 69,
                "name": "A4",
                "ticks": 23040,
                "time": 51.16797029375,
                "velocity": 0.7007874015748031
            },
            {
                "duration": 0.3030299999999997,
                "durationTicks": 160,
                "midi": 81,
                "name": "A5",
                "ticks": 24480,
                "time": 53.752288252083346,
                "velocity": 0.7874015748031497
            },
            {
                "duration": 0.3030299999999997,
                "durationTicks": 160,
                "midi": 69,
                "name": "A4",
                "ticks": 24480,
                "time": 53.752288252083346,
                "velocity": 0.7874015748031497
            },
            {
                "duration": 0.28702499999999276,
                "durationTicks": 160,
                "midi": 81,
                "name": "A5",
                "ticks": 24640,
                "time": 54.055318252083346,
                "velocity": 0.7874015748031497
            },
            {
                "duration": 0.28702499999999276,
                "durationTicks": 160,
                "midi": 69,
                "name": "A4",
                "ticks": 24640,
                "time": 54.055318252083346,
                "velocity": 0.7874015748031497
            },
            {
                "duration": 0.2644317645833425,
                "durationTicks": 160,
                "midi": 82,
                "name": "A#5",
                "ticks": 24800,
                "time": 54.34234325208334,
                "velocity": 0.7874015748031497
            },
            {
                "duration": 0.2644317645833425,
                "durationTicks": 160,
                "midi": 70,
                "name": "A#4",
                "ticks": 24800,
                "time": 54.34234325208334,
                "velocity": 0.7874015748031497
            },
            {
                "duration": 2.1574749458333287,
                "durationTicks": 1200,
                "midi": 84,
                "name": "C6",
                "ticks": 24960,
                "time": 54.60677501666668,
                "velocity": 0.84251968503937
            },
            {
                "duration": 2.1574749458333287,
                "durationTicks": 1200,
                "midi": 79,
                "name": "G5",
                "ticks": 24960,
                "time": 54.60677501666668,
                "velocity": 0.84251968503937
            },
            {
                "duration": 2.1574749458333287,
                "durationTicks": 1200,
                "midi": 76,
                "name": "E5",
                "ticks": 24960,
                "time": 54.60677501666668,
                "velocity": 0.84251968503937
            },
            {
                "duration": 2.1574749458333287,
                "durationTicks": 1200,
                "midi": 72,
                "name": "C5",
                "ticks": 24960,
                "time": 54.60677501666668,
                "velocity": 0.84251968503937
            },
            {
                "duration": 0.375,
                "durationTicks": 240,
                "midi": 81,
                "name": "A5",
                "ticks": 26160,
                "time": 56.76424996250001,
                "velocity": 0.7165354330708661
            },
            {
                "duration": 0.375,
                "durationTicks": 240,
                "midi": 69,
                "name": "A4",
                "ticks": 26160,
                "time": 56.76424996250001,
                "velocity": 0.7165354330708661
            },
            {
                "duration": 0.25,
                "durationTicks": 160,
                "midi": 65,
                "name": "F4",
                "ticks": 26400,
                "time": 57.13924996250001,
                "velocity": 0.7165354330708661
            },
            {
                "duration": 0.25,
                "durationTicks": 160,
                "midi": 77,
                "name": "F5",
                "ticks": 26400,
                "time": 57.13924996250001,
                "velocity": 0.7165354330708661
            },
            {
                "duration": 0.25,
                "durationTicks": 160,
                "midi": 64,
                "name": "E4",
                "ticks": 26560,
                "time": 57.38924996250001,
                "velocity": 0.7086614173228346
            },
            {
                "duration": 0.25,
                "durationTicks": 160,
                "midi": 76,
                "name": "E5",
                "ticks": 26560,
                "time": 57.38924996250001,
                "velocity": 0.7086614173228346
            },
            {
                "duration": 0.25,
                "durationTicks": 160,
                "midi": 62,
                "name": "D4",
                "ticks": 26720,
                "time": 57.63924996250001,
                "velocity": 0.7086614173228346
            },
            {
                "duration": 0.25,
                "durationTicks": 160,
                "midi": 74,
                "name": "D5",
                "ticks": 26720,
                "time": 57.63924996250001,
                "velocity": 0.7086614173228346
            },
            {
                "duration": 2.5302695020833355,
                "durationTicks": 1440,
                "midi": 64,
                "name": "E4",
                "ticks": 26880,
                "time": 57.88924996250001,
                "velocity": 0.7086614173228346
            },
            {
                "duration": 2.5302695020833355,
                "durationTicks": 1440,
                "midi": 69,
                "name": "A4",
                "ticks": 26880,
                "time": 57.88924996250001,
                "velocity": 0.7086614173228346
            },
            {
                "duration": 2.5302695020833355,
                "durationTicks": 1440,
                "midi": 73,
                "name": "C#5",
                "ticks": 26880,
                "time": 57.88924996250001,
                "velocity": 0.7086614173228346
            },
            {
                "duration": 2.5302695020833355,
                "durationTicks": 1440,
                "midi": 76,
                "name": "E5",
                "ticks": 26880,
                "time": 57.88924996250001,
                "velocity": 0.7086614173228346
            },
            {
                "duration": 0.26315766666667173,
                "durationTicks": 160,
                "midi": 62,
                "name": "D4",
                "ticks": 28320,
                "time": 60.419519464583345,
                "velocity": 0.7165354330708661
            },
            {
                "duration": 0.26315766666667173,
                "durationTicks": 160,
                "midi": 74,
                "name": "D5",
                "ticks": 28320,
                "time": 60.419519464583345,
                "velocity": 0.7165354330708661
            },
            {
                "duration": 0.2631576666666646,
                "durationTicks": 160,
                "midi": 64,
                "name": "E4",
                "ticks": 28480,
                "time": 60.68267713125002,
                "velocity": 0.7165354330708661
            },
            {
                "duration": 0.2631576666666646,
                "durationTicks": 160,
                "midi": 76,
                "name": "E5",
                "ticks": 28480,
                "time": 60.68267713125002,
                "velocity": 0.7165354330708661
            },
            {
                "duration": 0.2631576666666646,
                "durationTicks": 160,
                "midi": 65,
                "name": "F4",
                "ticks": 28640,
                "time": 60.94583479791668,
                "velocity": 0.7086614173228346
            },
            {
                "duration": 0.2631576666666646,
                "durationTicks": 160,
                "midi": 77,
                "name": "F5",
                "ticks": 28640,
                "time": 60.94583479791668,
                "velocity": 0.7086614173228346
            },
            {
                "duration": 1.3612894749999995,
                "durationTicks": 720,
                "midi": 79,
                "name": "G5",
                "ticks": 28800,
                "time": 61.208992464583346,
                "velocity": 0.7086614173228346
            },
            {
                "duration": 1.3612894749999995,
                "durationTicks": 720,
                "midi": 74,
                "name": "D5",
                "ticks": 28800,
                "time": 61.208992464583346,
                "velocity": 0.7086614173228346
            },
            {
                "duration": 1.3612894749999995,
                "durationTicks": 720,
                "midi": 67,
                "name": "G4",
                "ticks": 28800,
                "time": 61.208992464583346,
                "velocity": 0.7086614173228346
            },
            {
                "duration": 0.38960999999999757,
                "durationTicks": 240,
                "midi": 62,
                "name": "D4",
                "ticks": 29520,
                "time": 62.570281939583346,
                "velocity": 0.6692913385826772
            },
            {
                "duration": 0.38960999999999757,
                "durationTicks": 240,
                "midi": 74,
                "name": "D5",
                "ticks": 29520,
                "time": 62.570281939583346,
                "velocity": 0.6692913385826772
            },
            {
                "duration": 0.7792200000000022,
                "durationTicks": 480,
                "midi": 64,
                "name": "E4",
                "ticks": 29760,
                "time": 62.95989193958334,
                "velocity": 0.6535433070866141
            },
            {
                "duration": 0.7792200000000022,
                "durationTicks": 480,
                "midi": 76,
                "name": "E5",
                "ticks": 29760,
                "time": 62.95989193958334,
                "velocity": 0.6535433070866141
            },
            {
                "duration": 0.7792200000000022,
                "durationTicks": 480,
                "midi": 60,
                "name": "C4",
                "ticks": 30240,
                "time": 63.739111939583346,
                "velocity": 0.6141732283464567
            },
            {
                "duration": 0.7792200000000022,
                "durationTicks": 480,
                "midi": 72,
                "name": "C5",
                "ticks": 30240,
                "time": 63.739111939583346,
                "velocity": 0.6141732283464567
            },
            {
                "duration": 2.3350950166666706,
                "durationTicks": 1440,
                "midi": 77,
                "name": "F5",
                "ticks": 30720,
                "time": 64.51833193958335,
                "velocity": 0.5826771653543307
            },
            {
                "duration": 2.3350950166666706,
                "durationTicks": 1440,
                "midi": 72,
                "name": "C5",
                "ticks": 30720,
                "time": 64.51833193958335,
                "velocity": 0.5826771653543307
            },
            {
                "duration": 2.3350950166666706,
                "durationTicks": 1440,
                "midi": 69,
                "name": "A4",
                "ticks": 30720,
                "time": 64.51833193958335,
                "velocity": 0.5826771653543307
            },
            {
                "duration": 2.3350950166666706,
                "durationTicks": 1440,
                "midi": 65,
                "name": "F4",
                "ticks": 30720,
                "time": 64.51833193958335,
                "velocity": 0.5826771653543307
            },
            {
                "duration": 0.4635412499999916,
                "durationTicks": 240,
                "midi": 60,
                "name": "C4",
                "ticks": 32160,
                "time": 66.85342695625002,
                "velocity": 0.6299212598425197
            },
            {
                "duration": 0.375,
                "durationTicks": 240,
                "midi": 62,
                "name": "D4",
                "ticks": 32400,
                "time": 67.31696820625001,
                "velocity": 0.6299212598425197
            },
            {
                "duration": 1.125,
                "durationTicks": 720,
                "midi": 65,
                "name": "F4",
                "ticks": 32640,
                "time": 67.69196820625001,
                "velocity": 0.6299212598425197
            },
            {
                "duration": 1.125,
                "durationTicks": 720,
                "midi": 69,
                "name": "A4",
                "ticks": 32640,
                "time": 67.69196820625001,
                "velocity": 0.6299212598425197
            },
            {
                "duration": 0.375,
                "durationTicks": 240,
                "midi": 69,
                "name": "A4",
                "ticks": 33360,
                "time": 68.81696820625001,
                "velocity": 0.6299212598425197
            },
            {
                "duration": 0.375,
                "durationTicks": 240,
                "midi": 72,
                "name": "C5",
                "ticks": 33360,
                "time": 68.81696820625001,
                "velocity": 0.6299212598425197
            },
            {
                "duration": 0.5625,
                "durationTicks": 360,
                "midi": 65,
                "name": "F4",
                "ticks": 33600,
                "time": 69.19196820625001,
                "velocity": 0.6299212598425197
            },
            {
                "duration": 0.1875,
                "durationTicks": 120,
                "midi": 64,
                "name": "E4",
                "ticks": 33960,
                "time": 69.75446820625001,
                "velocity": 0.6299212598425197
            },
            {
                "duration": 0.375,
                "durationTicks": 240,
                "midi": 62,
                "name": "D4",
                "ticks": 34080,
                "time": 69.94196820625001,
                "velocity": 0.6299212598425197
            },
            {
                "duration": 0.375,
                "durationTicks": 240,
                "midi": 65,
                "name": "F4",
                "ticks": 34320,
                "time": 70.31696820625001,
                "velocity": 0.6299212598425197
            },
            {
                "duration": 2.25,
                "durationTicks": 1440,
                "midi": 60,
                "name": "C4",
                "ticks": 34560,
                "time": 70.69196820625001,
                "velocity": 0.6299212598425197
            },
            {
                "duration": 0.375,
                "durationTicks": 240,
                "midi": 65,
                "name": "F4",
                "ticks": 36000,
                "time": 72.94196820625001,
                "velocity": 0.6299212598425197
            },
            {
                "duration": 0.375,
                "durationTicks": 240,
                "midi": 67,
                "name": "G4",
                "ticks": 36240,
                "time": 73.31696820625001,
                "velocity": 0.6299212598425197
            },
            {
                "duration": 1.125,
                "durationTicks": 720,
                "midi": 64,
                "name": "E4",
                "ticks": 36480,
                "time": 73.69196820625001,
                "velocity": 0.6299212598425197
            },
            {
                "duration": 1.125,
                "durationTicks": 720,
                "midi": 69,
                "name": "A4",
                "ticks": 36480,
                "time": 73.69196820625001,
                "velocity": 0.6299212598425197
            },
            {
                "duration": 0.375,
                "durationTicks": 240,
                "midi": 74,
                "name": "D5",
                "ticks": 37200,
                "time": 74.81696820625001,
                "velocity": 0.6299212598425197
            },
            {
                "duration": 1.125,
                "durationTicks": 720,
                "midi": 69,
                "name": "A4",
                "ticks": 37200,
                "time": 74.81696820625001,
                "velocity": 0.6299212598425197
            },
            {
                "duration": 1.875,
                "durationTicks": 1200,
                "midi": 69,
                "name": "A4",
                "ticks": 37440,
                "time": 75.19196820625001,
                "velocity": 0.6299212598425197
            },
            {
                "duration": 0.375,
                "durationTicks": 240,
                "midi": 72,
                "name": "C5",
                "ticks": 37440,
                "time": 75.19196820625001,
                "velocity": 0.6299212598425197
            },
            {
                "duration": 2.25,
                "durationTicks": 1440,
                "midi": 64,
                "name": "E4",
                "ticks": 37680,
                "time": 75.56696820625001,
                "velocity": 0.6299212598425197
            },
            {
                "duration": 1.875,
                "durationTicks": 1200,
                "midi": 69,
                "name": "A4",
                "ticks": 37680,
                "time": 75.56696820625001,
                "velocity": 0.6299212598425197
            },
            {
                "duration": 0.5625,
                "durationTicks": 360,
                "midi": 67,
                "name": "G4",
                "ticks": 37920,
                "time": 75.94196820625001,
                "velocity": 0.6299212598425197
            },
            {
                "duration": 0.1875,
                "durationTicks": 120,
                "midi": 65,
                "name": "F4",
                "ticks": 38280,
                "time": 76.50446820625001,
                "velocity": 0.6299212598425197
            },
            {
                "duration": 1.875,
                "durationTicks": 1200,
                "midi": 69,
                "name": "A4",
                "ticks": 38400,
                "time": 76.69196820625001,
                "velocity": 0.6299212598425197
            },
            {
                "duration": 2.25,
                "durationTicks": 1440,
                "midi": 65,
                "name": "F4",
                "ticks": 38400,
                "time": 76.69196820625001,
                "velocity": 0.6299212598425197
            },
            {
                "duration": 0.375,
                "durationTicks": 240,
                "midi": 77,
                "name": "F5",
                "ticks": 38640,
                "time": 77.06696820625001,
                "velocity": 0.5433070866141733
            },
            {
                "duration": 0.375,
                "durationTicks": 240,
                "midi": 76,
                "name": "E5",
                "ticks": 38880,
                "time": 77.44196820625001,
                "velocity": 0.5433070866141733
            },
            {
                "duration": 0.375,
                "durationTicks": 240,
                "midi": 74,
                "name": "D5",
                "ticks": 39120,
                "time": 77.81696820625001,
                "velocity": 0.5354330708661418
            },
            {
                "duration": 0.75,
                "durationTicks": 480,
                "midi": 69,
                "name": "A4",
                "ticks": 39360,
                "time": 78.19196820625001,
                "velocity": 0.5275590551181102
            },
            {
                "duration": 0.375,
                "durationTicks": 240,
                "midi": 74,
                "name": "D5",
                "ticks": 39600,
                "time": 78.56696820625001,
                "velocity": 0.5196850393700787
            },
            {
                "duration": 0.25,
                "durationTicks": 160,
                "midi": 72,
                "name": "C5",
                "ticks": 39840,
                "time": 78.94196820625001,
                "velocity": 0.6299212598425197
            },
            {
                "duration": 0.25,
                "durationTicks": 160,
                "midi": 69,
                "name": "A4",
                "ticks": 39840,
                "time": 78.94196820625001,
                "velocity": 0.6299212598425197
            },
            {
                "duration": 0.25,
                "durationTicks": 160,
                "midi": 74,
                "name": "D5",
                "ticks": 40000,
                "time": 79.19196820625001,
                "velocity": 0.6299212598425197
            },
            {
                "duration": 0.25,
                "durationTicks": 160,
                "midi": 69,
                "name": "A4",
                "ticks": 40000,
                "time": 79.19196820625001,
                "velocity": 0.6299212598425197
            },
            {
                "duration": 0.25,
                "durationTicks": 160,
                "midi": 74,
                "name": "D5",
                "ticks": 40160,
                "time": 79.44196820625001,
                "velocity": 0.6299212598425197
            },
            {
                "duration": 0.25,
                "durationTicks": 160,
                "midi": 69,
                "name": "A4",
                "ticks": 40160,
                "time": 79.44196820625001,
                "velocity": 0.6299212598425197
            },
            {
                "duration": 1.125,
                "durationTicks": 720,
                "midi": 74,
                "name": "D5",
                "ticks": 40320,
                "time": 79.69196820625001,
                "velocity": 0.6299212598425197
            },
            {
                "duration": 1.125,
                "durationTicks": 720,
                "midi": 70,
                "name": "A#4",
                "ticks": 40320,
                "time": 79.69196820625001,
                "velocity": 0.6299212598425197
            },
            {
                "duration": 0.375,
                "durationTicks": 240,
                "midi": 72,
                "name": "C5",
                "ticks": 41040,
                "time": 80.81696820625001,
                "velocity": 0.6299212598425197
            },
            {
                "duration": 0.375,
                "durationTicks": 240,
                "midi": 70,
                "name": "A#4",
                "ticks": 41040,
                "time": 80.81696820625001,
                "velocity": 0.6299212598425197
            },
            {
                "duration": 0.375,
                "durationTicks": 240,
                "midi": 64,
                "name": "E4",
                "ticks": 41280,
                "time": 81.19196820625001,
                "velocity": 0.6299212598425197
            },
            {
                "duration": 0.1875,
                "durationTicks": 120,
                "midi": 62,
                "name": "D4",
                "ticks": 41520,
                "time": 81.56696820625001,
                "velocity": 0.6299212598425197
            },
            {
                "duration": 0.1875,
                "durationTicks": 120,
                "midi": 62,
                "name": "D4",
                "ticks": 41640,
                "time": 81.75446820625001,
                "velocity": 0.6299212598425197
            },
            {
                "duration": 0.375,
                "durationTicks": 240,
                "midi": 64,
                "name": "E4",
                "ticks": 41760,
                "time": 81.94196820625001,
                "velocity": 0.6299212598425197
            },
            {
                "duration": 0.375,
                "durationTicks": 240,
                "midi": 65,
                "name": "F4",
                "ticks": 42000,
                "time": 82.31696820625001,
                "velocity": 0.6299212598425197
            },
            {
                "duration": 2.25,
                "durationTicks": 1440,
                "midi": 64,
                "name": "E4",
                "ticks": 42240,
                "time": 82.69196820625001,
                "velocity": 0.6299212598425197
            },
            {
                "duration": 2.25,
                "durationTicks": 1440,
                "midi": 67,
                "name": "G4",
                "ticks": 42240,
                "time": 82.69196820625001,
                "velocity": 0.6299212598425197
            },
            {
                "duration": 0.375,
                "durationTicks": 240,
                "midi": 69,
                "name": "A4",
                "ticks": 43680,
                "time": 84.94196820625001,
                "velocity": 0.6299212598425197
            },
            {
                "duration": 0.375,
                "durationTicks": 240,
                "midi": 72,
                "name": "C5",
                "ticks": 43920,
                "time": 85.31696820625001,
                "velocity": 0.6299212598425197
            },
            {
                "duration": 0.75,
                "durationTicks": 480,
                "midi": 69,
                "name": "A4",
                "ticks": 44160,
                "time": 85.69196820625001,
                "velocity": 0.6299212598425197
            },
            {
                "duration": 0.375,
                "durationTicks": 240,
                "midi": 72,
                "name": "C5",
                "ticks": 44640,
                "time": 86.44196820625001,
                "velocity": 0.6299212598425197
            },
            {
                "duration": 0.375,
                "durationTicks": 240,
                "midi": 69,
                "name": "A4",
                "ticks": 44880,
                "time": 86.81696820625001,
                "velocity": 0.6299212598425197
            },
            {
                "duration": 0.375,
                "durationTicks": 240,
                "midi": 67,
                "name": "G4",
                "ticks": 45120,
                "time": 87.19196820625001,
                "velocity": 0.6299212598425197
            },
            {
                "duration": 0.1875,
                "durationTicks": 120,
                "midi": 67,
                "name": "G4",
                "ticks": 45360,
                "time": 87.56696820625001,
                "velocity": 0.6299212598425197
            },
            {
                "duration": 0.1875,
                "durationTicks": 120,
                "midi": 67,
                "name": "G4",
                "ticks": 45480,
                "time": 87.75446820625001,
                "velocity": 0.6299212598425197
            },
            {
                "duration": 0.375,
                "durationTicks": 240,
                "midi": 65,
                "name": "F4",
                "ticks": 45600,
                "time": 87.94196820625001,
                "velocity": 0.6299212598425197
            },
            {
                "duration": 0.375,
                "durationTicks": 240,
                "midi": 62,
                "name": "D4",
                "ticks": 45840,
                "time": 88.31696820625001,
                "velocity": 0.6299212598425197
            },
            {
                "duration": 2.25,
                "durationTicks": 1440,
                "midi": 65,
                "name": "F4",
                "ticks": 46080,
                "time": 88.69196820625001,
                "velocity": 0.6299212598425197
            },
            {
                "duration": 0.375,
                "durationTicks": 240,
                "midi": 84,
                "name": "C6",
                "ticks": 46320,
                "time": 89.06696820625001,
                "velocity": 0.5511811023622047
            },
            {
                "duration": 0.375,
                "durationTicks": 240,
                "midi": 81,
                "name": "A5",
                "ticks": 46560,
                "time": 89.44196820625001,
                "velocity": 0.5433070866141733
            },
            {
                "duration": 0.375,
                "durationTicks": 240,
                "midi": 79,
                "name": "G5",
                "ticks": 46800,
                "time": 89.81696820625001,
                "velocity": 0.5433070866141733
            },
            {
                "duration": 0.75,
                "durationTicks": 480,
                "midi": 77,
                "name": "F5",
                "ticks": 47040,
                "time": 90.19196820625001,
                "velocity": 0.5354330708661418
            },
            {
                "duration": 0.75,
                "durationTicks": 480,
                "midi": 60,
                "name": "C4",
                "ticks": 47520,
                "time": 90.94196820625001,
                "velocity": 0.6299212598425197
            },
            {
                "duration": 0.75,
                "durationTicks": 480,
                "midi": 72,
                "name": "C5",
                "ticks": 47520,
                "time": 90.94196820625001,
                "velocity": 0.6299212598425197
            },
            {
                "duration": 1.125,
                "durationTicks": 720,
                "midi": 84,
                "name": "C6",
                "ticks": 48000,
                "time": 91.69196820625001,
                "velocity": 0.6299212598425197
            },
            {
                "duration": 1.125,
                "durationTicks": 720,
                "midi": 81,
                "name": "A5",
                "ticks": 48000,
                "time": 91.69196820625001,
                "velocity": 0.6299212598425197
            },
            {
                "duration": 1.125,
                "durationTicks": 720,
                "midi": 77,
                "name": "F5",
                "ticks": 48000,
                "time": 91.69196820625001,
                "velocity": 0.6299212598425197
            },
            {
                "duration": 1.125,
                "durationTicks": 720,
                "midi": 72,
                "name": "C5",
                "ticks": 48000,
                "time": 91.69196820625001,
                "velocity": 0.6299212598425197
            },
            {
                "duration": 0.375,
                "durationTicks": 240,
                "midi": 81,
                "name": "A5",
                "ticks": 48720,
                "time": 92.81696820625001,
                "velocity": 0.6299212598425197
            },
            {
                "duration": 0.375,
                "durationTicks": 240,
                "midi": 69,
                "name": "A4",
                "ticks": 48720,
                "time": 92.81696820625001,
                "velocity": 0.6299212598425197
            },
            {
                "duration": 0.375,
                "durationTicks": 240,
                "midi": 86,
                "name": "D6",
                "ticks": 48960,
                "time": 93.19196820625001,
                "velocity": 0.6299212598425197
            },
            {
                "duration": 0.375,
                "durationTicks": 240,
                "midi": 74,
                "name": "D5",
                "ticks": 48960,
                "time": 93.19196820625001,
                "velocity": 0.6299212598425197
            },
            {
                "duration": 0.375,
                "durationTicks": 240,
                "midi": 84,
                "name": "C6",
                "ticks": 49200,
                "time": 93.56696820625001,
                "velocity": 0.6299212598425197
            },
            {
                "duration": 0.375,
                "durationTicks": 240,
                "midi": 72,
                "name": "C5",
                "ticks": 49200,
                "time": 93.56696820625001,
                "velocity": 0.6299212598425197
            },
            {
                "duration": 0.375,
                "durationTicks": 240,
                "midi": 77,
                "name": "F5",
                "ticks": 49440,
                "time": 93.94196820625001,
                "velocity": 0.6299212598425197
            },
            {
                "duration": 0.375,
                "durationTicks": 240,
                "midi": 65,
                "name": "F4",
                "ticks": 49440,
                "time": 93.94196820625001,
                "velocity": 0.6299212598425197
            },
            {
                "duration": 0.375,
                "durationTicks": 240,
                "midi": 79,
                "name": "G5",
                "ticks": 49680,
                "time": 94.31696820625001,
                "velocity": 0.6299212598425197
            },
            {
                "duration": 0.375,
                "durationTicks": 240,
                "midi": 67,
                "name": "G4",
                "ticks": 49680,
                "time": 94.31696820625001,
                "velocity": 0.6299212598425197
            },
            {
                "duration": 1.125,
                "durationTicks": 720,
                "midi": 81,
                "name": "A5",
                "ticks": 49920,
                "time": 94.69196820625001,
                "velocity": 0.6299212598425197
            },
            {
                "duration": 1.5,
                "durationTicks": 960,
                "midi": 77,
                "name": "F5",
                "ticks": 49920,
                "time": 94.69196820625001,
                "velocity": 0.6299212598425197
            },
            {
                "duration": 2.25,
                "durationTicks": 1440,
                "midi": 74,
                "name": "D5",
                "ticks": 49920,
                "time": 94.69196820625001,
                "velocity": 0.6299212598425197
            },
            {
                "duration": 2.25,
                "durationTicks": 1440,
                "midi": 69,
                "name": "A4",
                "ticks": 49920,
                "time": 94.69196820625001,
                "velocity": 0.6299212598425197
            },
            {
                "duration": 0.1875,
                "durationTicks": 120,
                "midi": 89,
                "name": "F6",
                "ticks": 50160,
                "time": 95.06696820625001,
                "velocity": 0.5354330708661418
            },
            {
                "duration": 0.1875,
                "durationTicks": 120,
                "midi": 86,
                "name": "D6",
                "ticks": 50280,
                "time": 95.25446820625001,
                "velocity": 0.5354330708661418
            },
            {
                "duration": 0.1875,
                "durationTicks": 120,
                "midi": 84,
                "name": "C6",
                "ticks": 50400,
                "time": 95.44196820625001,
                "velocity": 0.5354330708661418
            },
            {
                "duration": 1.3125,
                "durationTicks": 840,
                "midi": 81,
                "name": "A5",
                "ticks": 50520,
                "time": 95.62946820625001,
                "velocity": 0.5354330708661418
            },
            {
                "duration": 0.1875,
                "durationTicks": 120,
                "midi": 79,
                "name": "G5",
                "ticks": 50640,
                "time": 95.81696820625001,
                "velocity": 0.5354330708661418
            },
            {
                "duration": 0.9375,
                "durationTicks": 600,
                "midi": 77,
                "name": "F5",
                "ticks": 50760,
                "time": 96.00446820625001,
                "velocity": 0.5354330708661418
            },
            {
                "duration": 0.75,
                "durationTicks": 480,
                "midi": 81,
                "name": "A5",
                "ticks": 50880,
                "time": 96.19196820625001,
                "velocity": 0.5354330708661418
            },
            {
                "duration": 0.75,
                "durationTicks": 480,
                "midi": 77,
                "name": "F5",
                "ticks": 51360,
                "time": 96.94196820625001,
                "velocity": 0.6299212598425197
            },
            {
                "duration": 0.75,
                "durationTicks": 480,
                "midi": 65,
                "name": "F4",
                "ticks": 51360,
                "time": 96.94196820625001,
                "velocity": 0.6299212598425197
            },
            {
                "duration": 1.125,
                "durationTicks": 720,
                "midi": 86,
                "name": "D6",
                "ticks": 51840,
                "time": 97.69196820625001,
                "velocity": 0.6299212598425197
            },
            {
                "duration": 1.125,
                "durationTicks": 720,
                "midi": 82,
                "name": "A#5",
                "ticks": 51840,
                "time": 97.69196820625001,
                "velocity": 0.6299212598425197
            },
            {
                "duration": 1.125,
                "durationTicks": 720,
                "midi": 77,
                "name": "F5",
                "ticks": 51840,
                "time": 97.69196820625001,
                "velocity": 0.6299212598425197
            },
            {
                "duration": 1.125,
                "durationTicks": 720,
                "midi": 74,
                "name": "D5",
                "ticks": 51840,
                "time": 97.69196820625001,
                "velocity": 0.6299212598425197
            },
            {
                "duration": 0.375,
                "durationTicks": 240,
                "midi": 86,
                "name": "D6",
                "ticks": 52560,
                "time": 98.81696820625001,
                "velocity": 0.6299212598425197
            },
            {
                "duration": 0.375,
                "durationTicks": 240,
                "midi": 74,
                "name": "D5",
                "ticks": 52560,
                "time": 98.81696820625001,
                "velocity": 0.6299212598425197
            },
            {
                "duration": 0.375,
                "durationTicks": 240,
                "midi": 86,
                "name": "D6",
                "ticks": 52800,
                "time": 99.19196820625001,
                "velocity": 0.6299212598425197
            },
            {
                "duration": 0.375,
                "durationTicks": 240,
                "midi": 74,
                "name": "D5",
                "ticks": 52800,
                "time": 99.19196820625001,
                "velocity": 0.6299212598425197
            },
            {
                "duration": 0.375,
                "durationTicks": 240,
                "midi": 84,
                "name": "C6",
                "ticks": 53040,
                "time": 99.56696820625001,
                "velocity": 0.6299212598425197
            },
            {
                "duration": 0.375,
                "durationTicks": 240,
                "midi": 72,
                "name": "C5",
                "ticks": 53040,
                "time": 99.56696820625001,
                "velocity": 0.6299212598425197
            },
            {
                "duration": 0.375,
                "durationTicks": 240,
                "midi": 82,
                "name": "A#5",
                "ticks": 53280,
                "time": 99.94196820625001,
                "velocity": 0.6299212598425197
            },
            {
                "duration": 0.375,
                "durationTicks": 240,
                "midi": 70,
                "name": "A#4",
                "ticks": 53280,
                "time": 99.94196820625001,
                "velocity": 0.6299212598425197
            },
            {
                "duration": 0.375,
                "durationTicks": 240,
                "midi": 81,
                "name": "A5",
                "ticks": 53520,
                "time": 100.31696820625001,
                "velocity": 0.6299212598425197
            },
            {
                "duration": 0.375,
                "durationTicks": 240,
                "midi": 69,
                "name": "A4",
                "ticks": 53520,
                "time": 100.31696820625001,
                "velocity": 0.6299212598425197
            },
            {
                "duration": 2.4000000000000057,
                "durationTicks": 1440,
                "midi": 79,
                "name": "G5",
                "ticks": 53760,
                "time": 100.69196820625001,
                "velocity": 0.6299212598425197
            },
            {
                "duration": 2.4000000000000057,
                "durationTicks": 1440,
                "midi": 74,
                "name": "D5",
                "ticks": 53760,
                "time": 100.69196820625001,
                "velocity": 0.6299212598425197
            },
            {
                "duration": 2.4000000000000057,
                "durationTicks": 1440,
                "midi": 70,
                "name": "A#4",
                "ticks": 53760,
                "time": 100.69196820625001,
                "velocity": 0.6299212598425197
            },
            {
                "duration": 2.4000000000000057,
                "durationTicks": 1440,
                "midi": 67,
                "name": "G4",
                "ticks": 53760,
                "time": 100.69196820625001,
                "velocity": 0.6299212598425197
            },
            {
                "duration": 0.19999999999998863,
                "durationTicks": 120,
                "midi": 91,
                "name": "G6",
                "ticks": 54000,
                "time": 101.09196820625002,
                "velocity": 0.5196850393700787
            },
            {
                "duration": 0.20000000000000284,
                "durationTicks": 120,
                "midi": 88,
                "name": "E6",
                "ticks": 54120,
                "time": 101.29196820625,
                "velocity": 0.5196850393700787
            },
            {
                "duration": 0.20000000000000284,
                "durationTicks": 120,
                "midi": 86,
                "name": "D6",
                "ticks": 54240,
                "time": 101.49196820625001,
                "velocity": 0.5196850393700787
            },
            {
                "duration": 0.20000000000000284,
                "durationTicks": 120,
                "midi": 84,
                "name": "C6",
                "ticks": 54360,
                "time": 101.69196820625001,
                "velocity": 0.5196850393700787
            },
            {
                "duration": 0.20000000000000284,
                "durationTicks": 120,
                "midi": 82,
                "name": "A#5",
                "ticks": 54480,
                "time": 101.89196820625001,
                "velocity": 0.5196850393700787
            },
            {
                "duration": 0.19999999999998863,
                "durationTicks": 120,
                "midi": 81,
                "name": "A5",
                "ticks": 54600,
                "time": 102.09196820625002,
                "velocity": 0.5196850393700787
            },
            {
                "duration": 0.8000000000000114,
                "durationTicks": 480,
                "midi": 79,
                "name": "G5",
                "ticks": 54720,
                "time": 102.29196820625,
                "velocity": 0.5196850393700787
            },
            {
                "duration": 0.7999999999999972,
                "durationTicks": 480,
                "midi": 77,
                "name": "F5",
                "ticks": 55200,
                "time": 103.09196820625002,
                "velocity": 0.6299212598425197
            },
            {
                "duration": 0.7999999999999972,
                "durationTicks": 480,
                "midi": 65,
                "name": "F4",
                "ticks": 55200,
                "time": 103.09196820625002,
                "velocity": 0.6299212598425197
            },
            {
                "duration": 1.125,
                "durationTicks": 720,
                "midi": 89,
                "name": "F6",
                "ticks": 55680,
                "time": 103.89196820625001,
                "velocity": 0.6299212598425197
            },
            {
                "duration": 1.125,
                "durationTicks": 720,
                "midi": 84,
                "name": "C6",
                "ticks": 55680,
                "time": 103.89196820625001,
                "velocity": 0.6299212598425197
            },
            {
                "duration": 1.125,
                "durationTicks": 720,
                "midi": 81,
                "name": "A5",
                "ticks": 55680,
                "time": 103.89196820625001,
                "velocity": 0.6299212598425197
            },
            {
                "duration": 1.125,
                "durationTicks": 720,
                "midi": 77,
                "name": "F5",
                "ticks": 55680,
                "time": 103.89196820625001,
                "velocity": 0.6299212598425197
            },
            {
                "duration": 0.375,
                "durationTicks": 240,
                "midi": 84,
                "name": "C6",
                "ticks": 56400,
                "time": 105.01696820625001,
                "velocity": 0.6299212598425197
            },
            {
                "duration": 0.375,
                "durationTicks": 240,
                "midi": 72,
                "name": "C5",
                "ticks": 56400,
                "time": 105.01696820625001,
                "velocity": 0.6299212598425197
            },
            {
                "duration": 0.375,
                "durationTicks": 240,
                "midi": 88,
                "name": "E6",
                "ticks": 56640,
                "time": 105.39196820625001,
                "velocity": 0.6299212598425197
            },
            {
                "duration": 0.375,
                "durationTicks": 240,
                "midi": 76,
                "name": "E5",
                "ticks": 56640,
                "time": 105.39196820625001,
                "velocity": 0.6299212598425197
            },
            {
                "duration": 0.1875,
                "durationTicks": 120,
                "midi": 86,
                "name": "D6",
                "ticks": 56880,
                "time": 105.76696820625001,
                "velocity": 0.6299212598425197
            },
            {
                "duration": 0.1875,
                "durationTicks": 120,
                "midi": 74,
                "name": "D5",
                "ticks": 56880,
                "time": 105.76696820625001,
                "velocity": 0.6299212598425197
            },
            {
                "duration": 0.1875,
                "durationTicks": 120,
                "midi": 86,
                "name": "D6",
                "ticks": 57000,
                "time": 105.95446820625001,
                "velocity": 0.6299212598425197
            },
            {
                "duration": 0.1875,
                "durationTicks": 120,
                "midi": 74,
                "name": "D5",
                "ticks": 57000,
                "time": 105.95446820625001,
                "velocity": 0.6299212598425197
            },
            {
                "duration": 0.375,
                "durationTicks": 240,
                "midi": 67,
                "name": "G4",
                "ticks": 57120,
                "time": 106.14196820625001,
                "velocity": 0.6299212598425197
            },
            {
                "duration": 0.375,
                "durationTicks": 240,
                "midi": 79,
                "name": "G5",
                "ticks": 57120,
                "time": 106.14196820625001,
                "velocity": 0.6299212598425197
            },
            {
                "duration": 0.375,
                "durationTicks": 240,
                "midi": 69,
                "name": "A4",
                "ticks": 57360,
                "time": 106.51696820625001,
                "velocity": 0.6299212598425197
            },
            {
                "duration": 0.375,
                "durationTicks": 240,
                "midi": 81,
                "name": "A5",
                "ticks": 57360,
                "time": 106.51696820625001,
                "velocity": 0.6299212598425197
            },
            {
                "duration": 0.41816221666667275,
                "durationTicks": 240,
                "midi": 82,
                "name": "A#5",
                "ticks": 57600,
                "time": 106.89196820625001,
                "velocity": 0.6299212598425197
            },
            {
                "duration": 0.41816221666667275,
                "durationTicks": 240,
                "midi": 79,
                "name": "G5",
                "ticks": 57600,
                "time": 106.89196820625001,
                "velocity": 0.6299212598425197
            },
            {
                "duration": 0.41816221666667275,
                "durationTicks": 240,
                "midi": 74,
                "name": "D5",
                "ticks": 57600,
                "time": 106.89196820625001,
                "velocity": 0.6299212598425197
            },
            {
                "duration": 0.41816221666667275,
                "durationTicks": 240,
                "midi": 70,
                "name": "A#4",
                "ticks": 57600,
                "time": 106.89196820625001,
                "velocity": 0.6299212598425197
            },
            {
                "duration": 0.41666650000000516,
                "durationTicks": 240,
                "midi": 84,
                "name": "C6",
                "ticks": 57840,
                "time": 107.31013042291669,
                "velocity": 0.6535433070866141
            },
            {
                "duration": 0.41666650000000516,
                "durationTicks": 240,
                "midi": 72,
                "name": "C5",
                "ticks": 57840,
                "time": 107.31013042291669,
                "velocity": 0.6535433070866141
            },
            {
                "duration": 0.379746499999996,
                "durationTicks": 240,
                "midi": 86,
                "name": "D6",
                "ticks": 58080,
                "time": 107.72679692291669,
                "velocity": 0.6692913385826772
            },
            {
                "duration": 0.379746499999996,
                "durationTicks": 240,
                "midi": 81,
                "name": "A5",
                "ticks": 58080,
                "time": 107.72679692291669,
                "velocity": 0.6692913385826772
            },
            {
                "duration": 0.379746499999996,
                "durationTicks": 240,
                "midi": 74,
                "name": "D5",
                "ticks": 58080,
                "time": 107.72679692291669,
                "velocity": 0.6692913385826772
            },
            {
                "duration": 0.3797465000000102,
                "durationTicks": 240,
                "midi": 88,
                "name": "E6",
                "ticks": 58320,
                "time": 108.10654342291669,
                "velocity": 0.6771653543307087
            },
            {
                "duration": 0.3797465000000102,
                "durationTicks": 240,
                "midi": 76,
                "name": "E5",
                "ticks": 58320,
                "time": 108.10654342291669,
                "velocity": 0.6771653543307087
            },
            {
                "duration": 0.3727311166666709,
                "durationTicks": 240,
                "midi": 86,
                "name": "D6",
                "ticks": 58560,
                "time": 108.4862899229167,
                "velocity": 0.6929133858267716
            },
            {
                "duration": 0.3727311166666709,
                "durationTicks": 240,
                "midi": 81,
                "name": "A5",
                "ticks": 58560,
                "time": 108.4862899229167,
                "velocity": 0.6929133858267716
            },
            {
                "duration": 0.3727311166666709,
                "durationTicks": 240,
                "midi": 74,
                "name": "D5",
                "ticks": 58560,
                "time": 108.4862899229167,
                "velocity": 0.6929133858267716
            },
            {
                "duration": 0.35409054166666465,
                "durationTicks": 240,
                "midi": 86,
                "name": "D6",
                "ticks": 58800,
                "time": 108.85902103958337,
                "velocity": 0.7007874015748031
            },
            {
                "duration": 0.35409054166666465,
                "durationTicks": 240,
                "midi": 81,
                "name": "A5",
                "ticks": 58800,
                "time": 108.85902103958337,
                "velocity": 0.7007874015748031
            },
            {
                "duration": 0.35409054166666465,
                "durationTicks": 240,
                "midi": 74,
                "name": "D5",
                "ticks": 58800,
                "time": 108.85902103958337,
                "velocity": 0.7007874015748031
            },
            {
                "duration": 0.4577812999999935,
                "durationTicks": 240,
                "midi": 88,
                "name": "E6",
                "ticks": 59040,
                "time": 109.21311158125003,
                "velocity": 0.7165354330708661
            },
            {
                "duration": 0.4577812999999935,
                "durationTicks": 240,
                "midi": 76,
                "name": "E5",
                "ticks": 59040,
                "time": 109.21311158125003,
                "velocity": 0.7165354330708661
            },
            {
                "duration": 0.46153800000000444,
                "durationTicks": 240,
                "midi": 89,
                "name": "F6",
                "ticks": 59280,
                "time": 109.67089288125003,
                "velocity": 0.7322834645669292
            },
            {
                "duration": 0.46153800000000444,
                "durationTicks": 240,
                "midi": 77,
                "name": "F5",
                "ticks": 59280,
                "time": 109.67089288125003,
                "velocity": 0.7322834645669292
            },
            {
                "duration": 2.311814131250003,
                "durationTicks": 1200,
                "midi": 91,
                "name": "G6",
                "ticks": 59520,
                "time": 110.13243088125003,
                "velocity": 0.8031496062992126
            },
            {
                "duration": 1.6461304687500018,
                "durationTicks": 960,
                "midi": 86,
                "name": "D6",
                "ticks": 59520,
                "time": 110.13243088125003,
                "velocity": 0.8031496062992126
            },
            {
                "duration": 1.5091443020833282,
                "durationTicks": 880,
                "midi": 83,
                "name": "B5",
                "ticks": 59520,
                "time": 110.13243088125003,
                "velocity": 0.8031496062992126
            },
            {
                "duration": 1.3781951874999976,
                "durationTicks": 800,
                "midi": 79,
                "name": "G5",
                "ticks": 59520,
                "time": 110.13243088125003,
                "velocity": 0.8031496062992126
            },
            {
                "duration": 0.13157883333333587,
                "durationTicks": 80,
                "midi": 67,
                "name": "G4",
                "ticks": 60000,
                "time": 110.99046798125003,
                "velocity": 0.6220472440944882
            },
            {
                "duration": 0.13157883333333587,
                "durationTicks": 80,
                "midi": 70,
                "name": "A#4",
                "ticks": 60080,
                "time": 111.12204681458337,
                "velocity": 0.6141732283464567
            },
            {
                "duration": 0.1287954208333133,
                "durationTicks": 80,
                "midi": 74,
                "name": "D5",
                "ticks": 60160,
                "time": 111.2536256479167,
                "velocity": 0.6141732283464567
            },
            {
                "duration": 1.0618239437500137,
                "durationTicks": 480,
                "midi": 79,
                "name": "G5",
                "ticks": 60240,
                "time": 111.38242106875002,
                "velocity": 0.6062992125984252
            },
            {
                "duration": 0.9336189437500053,
                "durationTicks": 400,
                "midi": 83,
                "name": "B5",
                "ticks": 60320,
                "time": 111.51062606875003,
                "velocity": 0.6062992125984252
            },
            {
                "duration": 0.8026698291666747,
                "durationTicks": 320,
                "midi": 86,
                "name": "D6",
                "ticks": 60400,
                "time": 111.64157518333336,
                "velocity": 0.5984251968503937
            },
            {
                "duration": 1.1574866625000055,
                "durationTicks": 480,
                "midi": 91,
                "name": "G6",
                "ticks": 60480,
                "time": 111.77856135000003,
                "velocity": 0.5984251968503937
            },
            {
                "duration": 0.49180300000000443,
                "durationTicks": 240,
                "midi": 89,
                "name": "F6",
                "ticks": 60720,
                "time": 112.44424501250003,
                "velocity": 0.6299212598425197
            },
            {
                "duration": 0.49180300000000443,
                "durationTicks": 240,
                "midi": 77,
                "name": "F5",
                "ticks": 60720,
                "time": 112.44424501250003,
                "velocity": 0.6299212598425197
            },
            {
                "duration": 0.26972676666666473,
                "durationTicks": 160,
                "midi": 76,
                "name": "E5",
                "ticks": 60960,
                "time": 112.93604801250004,
                "velocity": 0.6299212598425197
            },
            {
                "duration": 0.26972676666666473,
                "durationTicks": 160,
                "midi": 72,
                "name": "C5",
                "ticks": 60960,
                "time": 112.93604801250004,
                "velocity": 0.6299212598425197
            },
            {
                "duration": 0.2768054541666771,
                "durationTicks": 160,
                "midi": 74,
                "name": "D5",
                "ticks": 61120,
                "time": 113.2057747791667,
                "velocity": 0.6299212598425197
            },
            {
                "duration": 0.2768054541666771,
                "durationTicks": 160,
                "midi": 70,
                "name": "A#4",
                "ticks": 61120,
                "time": 113.2057747791667,
                "velocity": 0.6299212598425197
            },
            {
                "duration": 0.29708216874999493,
                "durationTicks": 160,
                "midi": 69,
                "name": "A4",
                "ticks": 61280,
                "time": 113.48258023333338,
                "velocity": 0.6299212598425197
            },
            {
                "duration": 0.29708216874999493,
                "durationTicks": 160,
                "midi": 65,
                "name": "F4",
                "ticks": 61280,
                "time": 113.48258023333338,
                "velocity": 0.6299212598425197
            },
            {
                "duration": 1.0983717999999953,
                "durationTicks": 720,
                "midi": 72,
                "name": "C5",
                "ticks": 61440,
                "time": 113.77966240208337,
                "velocity": 0.6299212598425197
            },
            {
                "duration": 1.4481899124999842,
                "durationTicks": 960,
                "midi": 67,
                "name": "G4",
                "ticks": 61440,
                "time": 113.77966240208337,
                "velocity": 0.6299212598425197
            },
            {
                "duration": 1.8749697145833295,
                "durationTicks": 1200,
                "midi": 64,
                "name": "E4",
                "ticks": 61440,
                "time": 113.77966240208337,
                "velocity": 0.6299212598425197
            },
            {
                "duration": 0.1875,
                "durationTicks": 120,
                "midi": 79,
                "name": "G5",
                "ticks": 61560,
                "time": 113.96716240208337,
                "velocity": 0.5354330708661418
            },
            {
                "duration": 0.19499999999999318,
                "durationTicks": 120,
                "midi": 81,
                "name": "A5",
                "ticks": 61680,
                "time": 114.15466240208337,
                "velocity": 0.5118110236220472
            },
            {
                "duration": 0.1795348000000132,
                "durationTicks": 120,
                "midi": 76,
                "name": "E5",
                "ticks": 61800,
                "time": 114.34966240208337,
                "velocity": 0.5118110236220472
            },
            {
                "duration": 0.17441849999998738,
                "durationTicks": 120,
                "midi": 74,
                "name": "D5",
                "ticks": 61920,
                "time": 114.52919720208338,
                "velocity": 0.5118110236220472
            },
            {
                "duration": 1.520066027083331,
                "durationTicks": 840,
                "midi": 72,
                "name": "C5",
                "ticks": 62040,
                "time": 114.70361570208337,
                "velocity": 0.5118110236220472
            },
            {
                "duration": 0.1744185000000016,
                "durationTicks": 120,
                "midi": 69,
                "name": "A4",
                "ticks": 62160,
                "time": 114.87803420208337,
                "velocity": 0.5118110236220472
            },
            {
                "duration": 1.1712290270833279,
                "durationTicks": 600,
                "midi": 67,
                "name": "G4",
                "ticks": 62280,
                "time": 115.05245270208337,
                "velocity": 0.5039370078740157
            },
            {
                "duration": 0.9958294145833406,
                "durationTicks": 480,
                "midi": 64,
                "name": "E4",
                "ticks": 62400,
                "time": 115.22785231458336,
                "velocity": 0.5039370078740157
            },
            {
                "duration": 0.5690496124999953,
                "durationTicks": 240,
                "midi": 62,
                "name": "D4",
                "ticks": 62640,
                "time": 115.6546321166667,
                "velocity": 0.5039370078740157
            },
            {
                "duration": 0.3821078333333361,
                "durationTicks": 240,
                "midi": 60,
                "name": "C4",
                "ticks": 62880,
                "time": 116.2236817291667,
                "velocity": 0.6299212598425197
            },
            {
                "duration": 0.375,
                "durationTicks": 240,
                "midi": 62,
                "name": "D4",
                "ticks": 63120,
                "time": 116.60578956250004,
                "velocity": 0.6299212598425197
            },
            {
                "duration": 1.125,
                "durationTicks": 720,
                "midi": 65,
                "name": "F4",
                "ticks": 63360,
                "time": 116.98078956250004,
                "velocity": 0.6771653543307087
            },
            {
                "duration": 1.125,
                "durationTicks": 720,
                "midi": 69,
                "name": "A4",
                "ticks": 63360,
                "time": 116.98078956250004,
                "velocity": 0.6771653543307087
            },
            {
                "duration": 0.375,
                "durationTicks": 240,
                "midi": 69,
                "name": "A4",
                "ticks": 64080,
                "time": 118.10578956250004,
                "velocity": 0.6299212598425197
            },
            {
                "duration": 0.375,
                "durationTicks": 240,
                "midi": 72,
                "name": "C5",
                "ticks": 64080,
                "time": 118.10578956250004,
                "velocity": 0.6299212598425197
            },
            {
                "duration": 0.5625,
                "durationTicks": 360,
                "midi": 65,
                "name": "F4",
                "ticks": 64320,
                "time": 118.48078956250004,
                "velocity": 0.6299212598425197
            },
            {
                "duration": 0.1875,
                "durationTicks": 120,
                "midi": 64,
                "name": "E4",
                "ticks": 64680,
                "time": 119.04328956250004,
                "velocity": 0.6299212598425197
            },
            {
                "duration": 0.375,
                "durationTicks": 240,
                "midi": 62,
                "name": "D4",
                "ticks": 64800,
                "time": 119.23078956250004,
                "velocity": 0.6299212598425197
            },
            {
                "duration": 0.375,
                "durationTicks": 240,
                "midi": 65,
                "name": "F4",
                "ticks": 65040,
                "time": 119.60578956250004,
                "velocity": 0.6299212598425197
            },
            {
                "duration": 2.25,
                "durationTicks": 1440,
                "midi": 60,
                "name": "C4",
                "ticks": 65280,
                "time": 119.98078956250004,
                "velocity": 0.6299212598425197
            },
            {
                "duration": 0.375,
                "durationTicks": 240,
                "midi": 65,
                "name": "F4",
                "ticks": 66720,
                "time": 122.23078956250004,
                "velocity": 0.6299212598425197
            },
            {
                "duration": 0.375,
                "durationTicks": 240,
                "midi": 67,
                "name": "G4",
                "ticks": 66960,
                "time": 122.60578956250004,
                "velocity": 0.6299212598425197
            },
            {
                "duration": 1.125,
                "durationTicks": 720,
                "midi": 65,
                "name": "F4",
                "ticks": 67200,
                "time": 122.98078956250004,
                "velocity": 0.6929133858267716
            },
            {
                "duration": 1.125,
                "durationTicks": 720,
                "midi": 69,
                "name": "A4",
                "ticks": 67200,
                "time": 122.98078956250004,
                "velocity": 0.6929133858267716
            },
            {
                "duration": 0.375,
                "durationTicks": 240,
                "midi": 74,
                "name": "D5",
                "ticks": 67920,
                "time": 124.10578956250004,
                "velocity": 0.6299212598425197
            },
            {
                "duration": 1.125,
                "durationTicks": 720,
                "midi": 69,
                "name": "A4",
                "ticks": 67920,
                "time": 124.10578956250004,
                "velocity": 0.6299212598425197
            },
            {
                "duration": 1.875,
                "durationTicks": 1200,
                "midi": 69,
                "name": "A4",
                "ticks": 68160,
                "time": 124.48078956250004,
                "velocity": 0.6299212598425197
            },
            {
                "duration": 0.375,
                "durationTicks": 240,
                "midi": 72,
                "name": "C5",
                "ticks": 68160,
                "time": 124.48078956250004,
                "velocity": 0.6299212598425197
            },
            {
                "duration": 1.125,
                "durationTicks": 720,
                "midi": 65,
                "name": "F4",
                "ticks": 68400,
                "time": 124.85578956250004,
                "velocity": 0.6299212598425197
            },
            {
                "duration": 1.875,
                "durationTicks": 1200,
                "midi": 69,
                "name": "A4",
                "ticks": 68400,
                "time": 124.85578956250004,
                "velocity": 0.6299212598425197
            },
            {
                "duration": 0.5625,
                "durationTicks": 360,
                "midi": 67,
                "name": "G4",
                "ticks": 68640,
                "time": 125.23078956250004,
                "velocity": 0.6299212598425197
            },
            {
                "duration": 1.3125,
                "durationTicks": 840,
                "midi": 65,
                "name": "F4",
                "ticks": 69000,
                "time": 125.79328956250004,
                "velocity": 0.6299212598425197
            },
            {
                "duration": 2.25,
                "durationTicks": 1440,
                "midi": 69,
                "name": "A4",
                "ticks": 69120,
                "time": 125.98078956250004,
                "velocity": 0.6299212598425197
            },
            {
                "duration": 2.25,
                "durationTicks": 1440,
                "midi": 65,
                "name": "F4",
                "ticks": 69120,
                "time": 125.98078956250004,
                "velocity": 0.6299212598425197
            },
            {
                "duration": 0.1875,
                "durationTicks": 120,
                "midi": 89,
                "name": "F6",
                "ticks": 69360,
                "time": 126.35578956250004,
                "velocity": 0.5433070866141733
            },
            {
                "duration": 0.1875,
                "durationTicks": 120,
                "midi": 86,
                "name": "D6",
                "ticks": 69480,
                "time": 126.54328956250004,
                "velocity": 0.5590551181102362
            },
            {
                "duration": 0.1875,
                "durationTicks": 120,
                "midi": 84,
                "name": "C6",
                "ticks": 69600,
                "time": 126.73078956250004,
                "velocity": 0.5511811023622047
            },
            {
                "duration": 0.1875,
                "durationTicks": 120,
                "midi": 81,
                "name": "A5",
                "ticks": 69720,
                "time": 126.91828956250004,
                "velocity": 0.5511811023622047
            },
            {
                "duration": 0.1875,
                "durationTicks": 120,
                "midi": 79,
                "name": "G5",
                "ticks": 69840,
                "time": 127.10578956250004,
                "velocity": 0.5433070866141733
            },
            {
                "duration": 0.1875,
                "durationTicks": 120,
                "midi": 77,
                "name": "F5",
                "ticks": 69960,
                "time": 127.29328956250004,
                "velocity": 0.5433070866141733
            },
            {
                "duration": 0.75,
                "durationTicks": 480,
                "midi": 81,
                "name": "A5",
                "ticks": 70080,
                "time": 127.48078956250004,
                "velocity": 0.5354330708661418
            },
            {
                "duration": 0.25,
                "durationTicks": 160,
                "midi": 72,
                "name": "C5",
                "ticks": 70560,
                "time": 128.23078956250004,
                "velocity": 0.6299212598425197
            },
            {
                "duration": 0.25,
                "durationTicks": 160,
                "midi": 69,
                "name": "A4",
                "ticks": 70560,
                "time": 128.23078956250004,
                "velocity": 0.6299212598425197
            },
            {
                "duration": 0.25,
                "durationTicks": 160,
                "midi": 74,
                "name": "D5",
                "ticks": 70720,
                "time": 128.48078956250004,
                "velocity": 0.6377952755905512
            },
            {
                "duration": 0.25,
                "durationTicks": 160,
                "midi": 69,
                "name": "A4",
                "ticks": 70720,
                "time": 128.48078956250004,
                "velocity": 0.6377952755905512
            },
            {
                "duration": 0.25,
                "durationTicks": 160,
                "midi": 74,
                "name": "D5",
                "ticks": 70880,
                "time": 128.73078956250004,
                "velocity": 0.6692913385826772
            },
            {
                "duration": 0.25,
                "durationTicks": 160,
                "midi": 69,
                "name": "A4",
                "ticks": 70880,
                "time": 128.73078956250004,
                "velocity": 0.6692913385826772
            },
            {
                "duration": 1.5,
                "durationTicks": 960,
                "midi": 86,
                "name": "D6",
                "ticks": 71040,
                "time": 128.98078956250004,
                "velocity": 0.7007874015748031
            },
            {
                "duration": 1.5,
                "durationTicks": 960,
                "midi": 82,
                "name": "A#5",
                "ticks": 71040,
                "time": 128.98078956250004,
                "velocity": 0.7007874015748031
            },
            {
                "duration": 1.5,
                "durationTicks": 960,
                "midi": 79,
                "name": "G5",
                "ticks": 71040,
                "time": 128.98078956250004,
                "velocity": 0.7007874015748031
            },
            {
                "duration": 1.5,
                "durationTicks": 960,
                "midi": 74,
                "name": "D5",
                "ticks": 71040,
                "time": 128.98078956250004,
                "velocity": 0.7007874015748031
            },
            {
                "duration": 1.125,
                "durationTicks": 720,
                "midi": 62,
                "name": "D4",
                "ticks": 72000,
                "time": 130.48078956250004,
                "velocity": 0.6299212598425197
            },
            {
                "duration": 1.125,
                "durationTicks": 720,
                "midi": 67,
                "name": "G4",
                "ticks": 72000,
                "time": 130.48078956250004,
                "velocity": 0.6299212598425197
            },
            {
                "duration": 1.125,
                "durationTicks": 720,
                "midi": 70,
                "name": "A#4",
                "ticks": 72000,
                "time": 130.48078956250004,
                "velocity": 0.6299212598425197
            },
            {
                "duration": 1.125,
                "durationTicks": 720,
                "midi": 74,
                "name": "D5",
                "ticks": 72000,
                "time": 130.48078956250004,
                "velocity": 0.6299212598425197
            },
            {
                "duration": 0.375,
                "durationTicks": 240,
                "midi": 77,
                "name": "F5",
                "ticks": 72720,
                "time": 131.60578956250004,
                "velocity": 0.6299212598425197
            },
            {
                "duration": 0.375,
                "durationTicks": 240,
                "midi": 74,
                "name": "D5",
                "ticks": 72720,
                "time": 131.60578956250004,
                "velocity": 0.6299212598425197
            },
            {
                "duration": 0.375,
                "durationTicks": 240,
                "midi": 65,
                "name": "F4",
                "ticks": 72720,
                "time": 131.60578956250004,
                "velocity": 0.6299212598425197
            },
            {
                "duration": 0.375,
                "durationTicks": 240,
                "midi": 82,
                "name": "A#5",
                "ticks": 72960,
                "time": 131.98078956250004,
                "velocity": 0.6299212598425197
            },
            {
                "duration": 0.375,
                "durationTicks": 240,
                "midi": 79,
                "name": "G5",
                "ticks": 72960,
                "time": 131.98078956250004,
                "velocity": 0.6299212598425197
            },
            {
                "duration": 0.375,
                "durationTicks": 240,
                "midi": 75,
                "name": "D#5",
                "ticks": 72960,
                "time": 131.98078956250004,
                "velocity": 0.6299212598425197
            },
            {
                "duration": 0.375,
                "durationTicks": 240,
                "midi": 70,
                "name": "A#4",
                "ticks": 72960,
                "time": 131.98078956250004,
                "velocity": 0.6299212598425197
            },
            {
                "duration": 0.375,
                "durationTicks": 240,
                "midi": 81,
                "name": "A5",
                "ticks": 73200,
                "time": 132.35578956250004,
                "velocity": 0.6299212598425197
            },
            {
                "duration": 0.375,
                "durationTicks": 240,
                "midi": 69,
                "name": "A4",
                "ticks": 73200,
                "time": 132.35578956250004,
                "velocity": 0.6299212598425197
            },
            {
                "duration": 0.375,
                "durationTicks": 240,
                "midi": 79,
                "name": "G5",
                "ticks": 73440,
                "time": 132.73078956250004,
                "velocity": 0.6299212598425197
            },
            {
                "duration": 0.375,
                "durationTicks": 240,
                "midi": 70,
                "name": "A#4",
                "ticks": 73440,
                "time": 132.73078956250004,
                "velocity": 0.6299212598425197
            },
            {
                "duration": 0.375,
                "durationTicks": 240,
                "midi": 67,
                "name": "G4",
                "ticks": 73440,
                "time": 132.73078956250004,
                "velocity": 0.6299212598425197
            },
            {
                "duration": 0.375,
                "durationTicks": 240,
                "midi": 77,
                "name": "F5",
                "ticks": 73680,
                "time": 133.10578956250004,
                "velocity": 0.6299212598425197
            },
            {
                "duration": 0.375,
                "durationTicks": 240,
                "midi": 65,
                "name": "F4",
                "ticks": 73680,
                "time": 133.10578956250004,
                "velocity": 0.6299212598425197
            },
            {
                "duration": 0.5074010625000085,
                "durationTicks": 240,
                "midi": 62,
                "name": "D4",
                "ticks": 73920,
                "time": 133.48078956250004,
                "velocity": 0.6299212598425197
            },
            {
                "duration": 0.5074010625000085,
                "durationTicks": 240,
                "midi": 65,
                "name": "F4",
                "ticks": 73920,
                "time": 133.48078956250004,
                "velocity": 0.6299212598425197
            },
            {
                "duration": 0.5074010625000085,
                "durationTicks": 240,
                "midi": 74,
                "name": "D5",
                "ticks": 73920,
                "time": 133.48078956250004,
                "velocity": 0.6299212598425197
            },
            {
                "duration": 0.375,
                "durationTicks": 240,
                "midi": 60,
                "name": "C4",
                "ticks": 74160,
                "time": 133.98819062500004,
                "velocity": 0.6299212598425197
            },
            {
                "duration": 0.375,
                "durationTicks": 240,
                "midi": 72,
                "name": "C5",
                "ticks": 74160,
                "time": 133.98819062500004,
                "velocity": 0.6299212598425197
            },
            {
                "duration": 0.375,
                "durationTicks": 240,
                "midi": 62,
                "name": "D4",
                "ticks": 74400,
                "time": 134.36319062500004,
                "velocity": 0.6299212598425197
            },
            {
                "duration": 0.375,
                "durationTicks": 240,
                "midi": 74,
                "name": "D5",
                "ticks": 74400,
                "time": 134.36319062500004,
                "velocity": 0.6299212598425197
            },
            {
                "duration": 0.3749999999999716,
                "durationTicks": 240,
                "midi": 65,
                "name": "F4",
                "ticks": 74640,
                "time": 134.73819062500004,
                "velocity": 0.6299212598425197
            },
            {
                "duration": 0.3749999999999716,
                "durationTicks": 240,
                "midi": 77,
                "name": "F5",
                "ticks": 74640,
                "time": 134.73819062500004,
                "velocity": 0.6299212598425197
            },
            {
                "duration": 1.1750000000000114,
                "durationTicks": 720,
                "midi": 81,
                "name": "A5",
                "ticks": 74880,
                "time": 135.11319062500002,
                "velocity": 0.6771653543307087
            },
            {
                "duration": 1.1750000000000114,
                "durationTicks": 720,
                "midi": 77,
                "name": "F5",
                "ticks": 74880,
                "time": 135.11319062500002,
                "velocity": 0.6771653543307087
            },
            {
                "duration": 1.1750000000000114,
                "durationTicks": 720,
                "midi": 69,
                "name": "A4",
                "ticks": 74880,
                "time": 135.11319062500002,
                "velocity": 0.6771653543307087
            },
            {
                "duration": 0.375,
                "durationTicks": 240,
                "midi": 72,
                "name": "C5",
                "ticks": 75600,
                "time": 136.28819062500003,
                "velocity": 0.6299212598425197
            },
            {
                "duration": 0.375,
                "durationTicks": 240,
                "midi": 69,
                "name": "A4",
                "ticks": 75600,
                "time": 136.28819062500003,
                "velocity": 0.6299212598425197
            },
            {
                "duration": 0.5625,
                "durationTicks": 360,
                "midi": 79,
                "name": "G5",
                "ticks": 75840,
                "time": 136.66319062500003,
                "velocity": 0.6299212598425197
            },
            {
                "duration": 0.5625,
                "durationTicks": 360,
                "midi": 74,
                "name": "D5",
                "ticks": 75840,
                "time": 136.66319062500003,
                "velocity": 0.6299212598425197
            },
            {
                "duration": 0.5625,
                "durationTicks": 360,
                "midi": 67,
                "name": "G4",
                "ticks": 75840,
                "time": 136.66319062500003,
                "velocity": 0.6299212598425197
            },
            {
                "duration": 0.1875,
                "durationTicks": 120,
                "midi": 67,
                "name": "G4",
                "ticks": 76200,
                "time": 137.22569062500003,
                "velocity": 0.6299212598425197
            },
            {
                "duration": 0.8371790208333039,
                "durationTicks": 480,
                "midi": 69,
                "name": "A4",
                "ticks": 76320,
                "time": 137.41319062500003,
                "velocity": 0.6299212598425197
            },
            {
                "duration": 0.4857953124999881,
                "durationTicks": 240,
                "midi": 65,
                "name": "F4",
                "ticks": 76800,
                "time": 138.25036964583333,
                "velocity": 0.6299212598425197
            },
            {
                "duration": 0.227272499999998,
                "durationTicks": 120,
                "midi": 57,
                "name": "A3",
                "ticks": 77040,
                "time": 138.73616495833332,
                "velocity": 0.6220472440944882
            },
            {
                "duration": 0.227272499999998,
                "durationTicks": 120,
                "midi": 69,
                "name": "A4",
                "ticks": 77040,
                "time": 138.73616495833332,
                "velocity": 0.6220472440944882
            },
            {
                "duration": 0.22367137500003764,
                "durationTicks": 120,
                "midi": 58,
                "name": "A#3",
                "ticks": 77160,
                "time": 138.96343745833332,
                "velocity": 0.6299212598425197
            },
            {
                "duration": 0.22367137500003764,
                "durationTicks": 120,
                "midi": 70,
                "name": "A#4",
                "ticks": 77160,
                "time": 138.96343745833332,
                "velocity": 0.6299212598425197
            },
            {
                "duration": 0.1875,
                "durationTicks": 120,
                "midi": 60,
                "name": "C4",
                "ticks": 77280,
                "time": 139.18710883333335,
                "velocity": 0.6456692913385826
            },
            {
                "duration": 0.1875,
                "durationTicks": 120,
                "midi": 72,
                "name": "C5",
                "ticks": 77280,
                "time": 139.18710883333335,
                "velocity": 0.6456692913385826
            },
            {
                "duration": 0.1875,
                "durationTicks": 120,
                "midi": 62,
                "name": "D4",
                "ticks": 77400,
                "time": 139.37460883333335,
                "velocity": 0.6614173228346457
            },
            {
                "duration": 0.1875,
                "durationTicks": 120,
                "midi": 74,
                "name": "D5",
                "ticks": 77400,
                "time": 139.37460883333335,
                "velocity": 0.6614173228346457
            },
            {
                "duration": 0.1875,
                "durationTicks": 120,
                "midi": 64,
                "name": "E4",
                "ticks": 77520,
                "time": 139.56210883333335,
                "velocity": 0.6771653543307087
            },
            {
                "duration": 0.1875,
                "durationTicks": 120,
                "midi": 76,
                "name": "E5",
                "ticks": 77520,
                "time": 139.56210883333335,
                "velocity": 0.6771653543307087
            },
            {
                "duration": 0.1875,
                "durationTicks": 120,
                "midi": 65,
                "name": "F4",
                "ticks": 77640,
                "time": 139.74960883333335,
                "velocity": 0.6929133858267716
            },
            {
                "duration": 0.1875,
                "durationTicks": 120,
                "midi": 77,
                "name": "F5",
                "ticks": 77640,
                "time": 139.74960883333335,
                "velocity": 0.6929133858267716
            },
            {
                "duration": 0.25,
                "durationTicks": 160,
                "midi": 79,
                "name": "G5",
                "ticks": 77760,
                "time": 139.93710883333335,
                "velocity": 0.7086614173228346
            },
            {
                "duration": 0.25,
                "durationTicks": 160,
                "midi": 67,
                "name": "G4",
                "ticks": 77760,
                "time": 139.93710883333335,
                "velocity": 0.7086614173228346
            },
            {
                "duration": 0.25,
                "durationTicks": 160,
                "midi": 81,
                "name": "A5",
                "ticks": 77920,
                "time": 140.18710883333335,
                "velocity": 0.7244094488188977
            },
            {
                "duration": 0.25,
                "durationTicks": 160,
                "midi": 69,
                "name": "A4",
                "ticks": 77920,
                "time": 140.18710883333335,
                "velocity": 0.7244094488188977
            },
            {
                "duration": 0.25,
                "durationTicks": 160,
                "midi": 82,
                "name": "A#5",
                "ticks": 78080,
                "time": 140.43710883333335,
                "velocity": 0.7401574803149606
            },
            {
                "duration": 0.25,
                "durationTicks": 160,
                "midi": 70,
                "name": "A#4",
                "ticks": 78080,
                "time": 140.43710883333335,
                "velocity": 0.7401574803149606
            },
            {
                "duration": 0.3048074000000156,
                "durationTicks": 160,
                "midi": 84,
                "name": "C6",
                "ticks": 78240,
                "time": 140.68710883333335,
                "velocity": 0.7637795275590551
            },
            {
                "duration": 0.3048074000000156,
                "durationTicks": 160,
                "midi": 72,
                "name": "C5",
                "ticks": 78240,
                "time": 140.68710883333335,
                "velocity": 0.7637795275590551
            },
            {
                "duration": 0.3128202666666482,
                "durationTicks": 160,
                "midi": 86,
                "name": "D6",
                "ticks": 78400,
                "time": 140.99191623333337,
                "velocity": 0.7795275590551181
            },
            {
                "duration": 0.3128202666666482,
                "durationTicks": 160,
                "midi": 74,
                "name": "D5",
                "ticks": 78400,
                "time": 140.99191623333337,
                "velocity": 0.7795275590551181
            },
            {
                "duration": 0.3333333333333428,
                "durationTicks": 160,
                "midi": 88,
                "name": "E6",
                "ticks": 78560,
                "time": 141.30473650000002,
                "velocity": 0.8031496062992126
            },
            {
                "duration": 0.3333333333333428,
                "durationTicks": 160,
                "midi": 76,
                "name": "E5",
                "ticks": 78560,
                "time": 141.30473650000002,
                "velocity": 0.8031496062992126
            },
            {
                "duration": 2.8456781499999977,
                "durationTicks": 960,
                "midi": 89,
                "name": "F6",
                "ticks": 78720,
                "time": 141.63806983333336,
                "velocity": 0.8661417322834646
            },
            {
                "duration": 2.8456781499999977,
                "durationTicks": 960,
                "midi": 84,
                "name": "C6",
                "ticks": 78720,
                "time": 141.63806983333336,
                "velocity": 0.8661417322834646
            },
            {
                "duration": 2.8456781499999977,
                "durationTicks": 960,
                "midi": 81,
                "name": "A5",
                "ticks": 78720,
                "time": 141.63806983333336,
                "velocity": 0.8661417322834646
            },
            {
                "duration": 2.8456781499999977,
                "durationTicks": 960,
                "midi": 77,
                "name": "F5",
                "ticks": 78720,
                "time": 141.63806983333336,
                "velocity": 0.8661417322834646
            },
            {
                "duration": 0.35527944166665293,
                "durationTicks": 240,
                "midi": 88,
                "name": "E6",
                "ticks": 79920,
                "time": 144.86417448750004,
                "velocity": 0.8031496062992126
            },
            {
                "duration": 0.35527944166665293,
                "durationTicks": 240,
                "midi": 84,
                "name": "C6",
                "ticks": 79920,
                "time": 144.86417448750004,
                "velocity": 0.8031496062992126
            },
            {
                "duration": 0.35527944166665293,
                "durationTicks": 240,
                "midi": 81,
                "name": "A5",
                "ticks": 79920,
                "time": 144.86417448750004,
                "velocity": 0.8031496062992126
            },
            {
                "duration": 0.35527944166665293,
                "durationTicks": 240,
                "midi": 76,
                "name": "E5",
                "ticks": 79920,
                "time": 144.86417448750004,
                "velocity": 0.8031496062992126
            },
            {
                "duration": 0.3703700000000083,
                "durationTicks": 240,
                "midi": 86,
                "name": "D6",
                "ticks": 80160,
                "time": 145.2194539291667,
                "velocity": 0.8031496062992126
            },
            {
                "duration": 0.3703700000000083,
                "durationTicks": 240,
                "midi": 81,
                "name": "A5",
                "ticks": 80160,
                "time": 145.2194539291667,
                "velocity": 0.8031496062992126
            },
            {
                "duration": 0.3703700000000083,
                "durationTicks": 240,
                "midi": 77,
                "name": "F5",
                "ticks": 80160,
                "time": 145.2194539291667,
                "velocity": 0.8031496062992126
            },
            {
                "duration": 0.3703700000000083,
                "durationTicks": 240,
                "midi": 74,
                "name": "D5",
                "ticks": 80160,
                "time": 145.2194539291667,
                "velocity": 0.8031496062992126
            },
            {
                "duration": 0.3703699999999799,
                "durationTicks": 240,
                "midi": 84,
                "name": "C6",
                "ticks": 80400,
                "time": 145.5898239291667,
                "velocity": 0.8031496062992126
            },
            {
                "duration": 0.3703699999999799,
                "durationTicks": 240,
                "midi": 81,
                "name": "A5",
                "ticks": 80400,
                "time": 145.5898239291667,
                "velocity": 0.8031496062992126
            },
            {
                "duration": 0.3703699999999799,
                "durationTicks": 240,
                "midi": 77,
                "name": "F5",
                "ticks": 80400,
                "time": 145.5898239291667,
                "velocity": 0.8031496062992126
            },
            {
                "duration": 0.3703699999999799,
                "durationTicks": 240,
                "midi": 72,
                "name": "C5",
                "ticks": 80400,
                "time": 145.5898239291667,
                "velocity": 0.8031496062992126
            },
            {
                "duration": 2.2222200000000214,
                "durationTicks": 1440,
                "midi": 86,
                "name": "D6",
                "ticks": 80640,
                "time": 145.96019392916668,
                "velocity": 0.8031496062992126
            },
            {
                "duration": 2.2222200000000214,
                "durationTicks": 1440,
                "midi": 82,
                "name": "A#5",
                "ticks": 80640,
                "time": 145.96019392916668,
                "velocity": 0.8031496062992126
            },
            {
                "duration": 2.2222200000000214,
                "durationTicks": 1440,
                "midi": 77,
                "name": "F5",
                "ticks": 80640,
                "time": 145.96019392916668,
                "velocity": 0.8031496062992126
            },
            {
                "duration": 2.2222200000000214,
                "durationTicks": 1440,
                "midi": 74,
                "name": "D5",
                "ticks": 80640,
                "time": 145.96019392916668,
                "velocity": 0.8031496062992126
            },
            {
                "duration": 0.3703699999999799,
                "durationTicks": 240,
                "midi": 77,
                "name": "F5",
                "ticks": 82080,
                "time": 148.1824139291667,
                "velocity": 0.8031496062992126
            },
            {
                "duration": 0.3703699999999799,
                "durationTicks": 240,
                "midi": 65,
                "name": "F4",
                "ticks": 82080,
                "time": 148.1824139291667,
                "velocity": 0.8031496062992126
            },
            {
                "duration": 0.3703700000000083,
                "durationTicks": 240,
                "midi": 79,
                "name": "G5",
                "ticks": 82320,
                "time": 148.55278392916668,
                "velocity": 0.8031496062992126
            },
            {
                "duration": 0.3703700000000083,
                "durationTicks": 240,
                "midi": 67,
                "name": "G4",
                "ticks": 82320,
                "time": 148.55278392916668,
                "velocity": 0.8031496062992126
            },
            {
                "duration": 1.2725954416666525,
                "durationTicks": 720,
                "midi": 81,
                "name": "A5",
                "ticks": 82560,
                "time": 148.9231539291667,
                "velocity": 0.8031496062992126
            },
            {
                "duration": 1.2725954416666525,
                "durationTicks": 720,
                "midi": 77,
                "name": "F5",
                "ticks": 82560,
                "time": 148.9231539291667,
                "velocity": 0.8031496062992126
            },
            {
                "duration": 1.2725954416666525,
                "durationTicks": 720,
                "midi": 72,
                "name": "C5",
                "ticks": 82560,
                "time": 148.9231539291667,
                "velocity": 0.8031496062992126
            },
            {
                "duration": 1.2725954416666525,
                "durationTicks": 720,
                "midi": 69,
                "name": "A4",
                "ticks": 82560,
                "time": 148.9231539291667,
                "velocity": 0.8031496062992126
            },
            {
                "duration": 0.3797464999999818,
                "durationTicks": 240,
                "midi": 84,
                "name": "C6",
                "ticks": 83280,
                "time": 150.19574937083334,
                "velocity": 0.7007874015748031
            },
            {
                "duration": 0.3797464999999818,
                "durationTicks": 240,
                "midi": 72,
                "name": "C5",
                "ticks": 83280,
                "time": 150.19574937083334,
                "velocity": 0.7007874015748031
            },
            {
                "duration": 0.43294796666668844,
                "durationTicks": 240,
                "midi": 79,
                "name": "G5",
                "ticks": 83520,
                "time": 150.57549587083332,
                "velocity": 0.6929133858267716
            }
        ];
        const WIDTH = ctx.width | 800;
        const HEIGHT = ctx.height | 400;
        const blockWidth = WIDTH / NOTES_LIST.length;
        const blankTime = 1000;
        const firstNoteTime = notes[0].time * 1000;
        const moveVelocity = HEIGHT / (blankTime + firstNoteTime);

        console.log(WIDTH, HEIGHT, blockWidth, moveVelocity);

        const createNotesBlock = (notes) => {
            const notesBlocks = [];
            notes.forEach(note => {
                const x = NOTES_LIST.indexOf(note.name) * blockWidth;
                const h = note.duration * 1000 * moveVelocity;
                const w = blockWidth;
                const y = - (note.time * 1000 - firstNoteTime) * moveVelocity - h;
                const noteBlock = {
                    name: note.name,
                    x: x,
                    y: y,
                    height: h,
                    width: w
                }
                notesBlocks.push(noteBlock);
            });
            return notesBlocks;
        }

        const updateNotesBlock = (notesBlocks, lastTime) => {
            const now = +new Date();
            const passed = now - lastTime;
            notesBlocks.forEach(block => {
                block.y += passed * moveVelocity;
            });
            const updatedBlocks = notesBlocks.filter(block => {
                return block.y <= HEIGHT + block.height;
            })

            return { updatedBlocks, now };
        }

        const draw = (notesBlocks, lastTime) => {
            console.log(notesBlocks);
            // 清空画布
            ctx.clearRect(0, 0, canvas.width, canvas.height);
            // 绘制音符块
            for (let i = 0; i < notesBlocks.length; i++) {
                const block = notesBlocks[i];

                // 绘制音符块
                ctx.fillStyle = block.highlighted ? 'yellow' : 'blue';
                ctx.fillRect(block.x, block.y, block.width, block.height);

                // 判断音符块是否触及底部白线
                if (block.y + block.height >= HEIGHT) {
                    // 判断是否需要触发音符块的发亮效果
                    block.highlighted = true;

                    // 判断是否需要结束动画
                    if (block.noteIndex >= notes.length) {
                        cancelAnimationFrame(animationId);
                    }
                }
            }

            animationId = requestAnimationFrame(() => {
                const { updatedBlocks, now } = updateNotesBlock(notesBlocks, lastTime);
                console.log(updatedBlocks);
                updatedBlocks.length > 0 ? draw(updatedBlocks, now) : cancelAnimationFrame(animationId);
            });
        }

        animationId = requestAnimationFrame(() => {
            const notesBlocks = createNotesBlock(notes);
            draw(notesBlocks, +new Date());
        })

    </script>
</body>

</html>